/* XPM */
static char *_647293130077[] = {
/* columns rows colors chars-per-pixel */
"50 50 247 2 ",
"   c #8AB412",
".  c #8BB415",
"X  c #8DB51B",
"o  c #8BB414",
"O  c #85AE12",
"+  c #87B012",
"@  c #8CB418",
"#  c #8BB315",
"$  c #8AB11A",
"%  c #8AB313",
"&  c #8BB417",
"*  c #8DB419",
"=  c #8AB413",
"-  c #8BB513",
";  c #8DB816",
":  c #D0D78F",
">  c #C3D47F",
",  c #8BB416",
"<  c #8DB41A",
"1  c #8BB314",
"2  c #8CB419",
"3  c #86AE15",
"4  c #88B212",
"5  c #8CB41A",
"6  c #8EB61B",
"7  c #8DB519",
"8  c #8FB71C",
"9  c #8FBA19",
"0  c #89B312",
"q  c #8FBA18",
"w  c #8EB916",
"e  c #8CB815",
"r  c #8BB614",
"t  c #8BB413",
"y  c #7FA614",
"u  c #8AB513",
"i  c #8CB417",
"p  c #8CB516",
"a  c #83AB13",
"s  c #8BB613",
"d  c #8CB517",
"f  c #8BB515",
"g  c #8CB614",
"h  c #8CB519",
"j  c #92BC20",
"k  c #84AD13",
"l  c #8AB512",
"z  c #8DB51A",
"x  c #90BC1A",
"c  c #8FB91D",
"v  c #8CB715",
"b  c #A4C140",
"n  c #90BC19",
"m  c #8EB71B",
"M  c #B1CD60",
"N  c #90B81E",
"B  c #90BD19",
"V  c #8BB514",
"C  c #81A61C",
"Z  c #8BB316",
"A  c #91B821",
"S  c #D2D488",
"D  c #90B81D",
"F  c #93B925",
"G  c #90B620",
"H  c #92B922",
"J  c #DFD695",
"K  c #E1D695",
"L  c #93B923",
"P  c #8CB514",
"I  c #8FBB18",
"U  c #8DB619",
"Y  c #C9D079",
"T  c #A7C142",
"R  c #D0DE9B",
"E  c #D5E1A4",
"W  c #87B113",
"Q  c #93B113",
"!  c #B8A81B",
"~  c #8EB415",
"^  c #8CB714",
"/  c #8AB314",
"(  c #8EBA17",
")  c #82A915",
"_  c #9BB119",
"`  c #E5AE48",
"'  c #8FB415",
"]  c #8EB819",
"[  c #8DB815",
"{  c #89B215",
"}  c #92B918",
"|  c #8AB312",
" . c #7EA511",
".. c #85AF12",
"X. c #86AF13",
"o. c #8DB916",
"O. c #83AB12",
"+. c #8FBC18",
"@. c #88B014",
"#. c #86AD16",
"$. c #84AC13",
"%. c #82AB12",
"&. c #A4AD15",
"*. c #9DB018",
"=. c #92BB1F",
"-. c #8CB616",
";. c #8DB715",
":. c #80A814",
">. c #89B213",
",. c #92B924",
"<. c #DBAC3D",
"1. c #D1AC34",
"2. c #8CB518",
"3. c #8CB319",
"4. c #88B112",
"5. c #82AA13",
"6. c #B4CC63",
"7. c #DBD087",
"8. c #A7C03F",
"9. c #95B114",
"0. c #82AA12",
"q. c #8BB317",
"w. c #8AB414",
"e. c #99BD2F",
"r. c #CFD88C",
"t. c #94BB27",
"y. c #8FBA17",
"u. c #87B112",
"i. c #8CB41B",
"p. c #8DB41B",
"a. c #81A914",
"s. c #7CA411",
"d. c #89B214",
"f. c #8DB716",
"g. c #8AB119",
"h. c #7FA612",
"j. c #92BE1C",
"k. c #8EB71C",
"l. c #86B012",
"z. c #8CB416",
"x. c #7FA711",
"c. c #7FA517",
"v. c #87B013",
"b. c #8BB21A",
"n. c #89B212",
"m. c #8CB615",
"M. c #8AB219",
"N. c #81AA13",
"B. c #8EB816",
"V. c #A9AB17",
"C. c #BFA922",
"Z. c #8CB513",
"A. c #8CB515",
"S. c #89B019",
"D. c #8AB215",
"F. c #84AD12",
"G. c #B9B22D",
"H. c #D8AB37",
"J. c #90BB1D",
"K. c #86AF12",
"L. c #8AB217",
"P. c #97B632",
"I. c #C3CA6F",
"U. c #8EB313",
"Y. c #89B115",
"T. c #91B823",
"R. c #9CBE37",
"E. c #8FBB17",
"W. c #8EB917",
"Q. c #85AD13",
"!. c #81A915",
"~. c #92BB20",
"^. c #90BA1C",
"/. c #CDD280",
"(. c #AFC84F",
"). c #7FA712",
"_. c #8FB71D",
"`. c #CADB8F",
"'. c #8DB618",
"]. c #8EB61A",
"[. c #BDD57A",
"{. c #EFBE70",
"}. c #B8D16E",
"|. c #8FB81D",
" X c #9FC23D",
".X c #C7DB8D",
"XX c #90B71E",
"oX c #84AC12",
"OX c #89B313",
"+X c #8DB61A",
"@X c #87B014",
"#X c #8BB313",
"$X c #93BA25",
"%X c #B2CD64",
"&X c #8CB317",
"*X c #8DB719",
"=X c #D9DC9E",
"-X c #E3CB86",
";X c #94BA28",
":X c #88B113",
">X c #B4CE6B",
",X c #BCD379",
"<X c #83AC18",
"1X c #8EB91A",
"2X c #83AA17",
"3X c #90BB1C",
"4X c #84AC14",
"5X c #86AE14",
"6X c #88B114",
"7X c #92BA23",
"8X c #E7D395",
"9X c #AFC856",
"0X c #90BD1A",
"qX c #8EB71A",
"wX c #C7D582",
"eX c #9DBF37",
"rX c #83AC12",
"tX c #85AD14",
"yX c #89AF1A",
"uX c #92B921",
"iX c #BBD168",
"pX c #CACE75",
"aX c #83AB16",
"sX c #89B116",
"dX c #83AC13",
"fX c #88B016",
"gX c #8DB617",
"hX c #9FAE15",
"jX c #D9A835",
"kX c #9DB322",
"lX c #97B319",
"zX c #CEAA31",
"xX c #92B217",
"cX c #82A914",
"vX c #91B722",
"bX c #86AE13",
"nX c #B2C367",
"mX c #C7CE73",
"MX c #84AE12",
"NX c #8DB718",
"BX c #99BC35",
"VX c #AAC852",
"CX c #8AB415",
"ZX c #8AB315",
"AX c #8DB717",
"SX c #C7D47F",
"DX c #B2CA5B",
/* pixels */
"  . X o         O + . @             # $ %             & * = - ;       % : >             , < =       ",
". < %                             1 2 3 4             #             % 5 6 o           = 7 %         ",
". %                             = 8 9                 0           o < #     q w                     ",
"        e r   @ %                 =             t     y           = #       -                       ",
"        u t i i                               p @     0 a     s ;               , d                 ",
"          # @ =         - f ,       g       h j =       k   =   l             . z x -     -         ",
"        7 h         u   , c 1     u v     , @ b =         % 2 o             # 2           n % i     ",
"      @ m r   M N = B V C 1             Z 2 A S D       . 2 .             Z * =           o @ ,     ",
"    F G     H J K L # z %           y , < =     B   w P & 1     - I   I U 2 =           % 2 #       ",
"    Y T     p R E 6 5 #             W .         -   o z 1   Q ! ~ ^   = 5 %           = m .         ",
"    V           = < /     (                       ) 2 #     _ ` '                   % 2 ] -         ",
"%                 =       -     = [ -     v u     { 1       - }     O |        ...  * Z             ",
"=           0 X.              Z @ v -     ; u         w o.    - & . O.0             t -   ^ +.    = ",
"v         @.#.$.  I ^       @ * %       %.0     &.*.          . 2 %           I       o.-       o m ",
"        / =.-.    ;       , d ;.:.      O >.X ,.<.1.        # 2 |           = 2.        ; ^   , 5 % ",
"      % < 1       ;     Z 3.t ;.4.5.    1 2 6.7.8.9.      # 2 =   -       = @ d [ 0.+       % q.w.  ",
"    # z %             & $ $.      4.  % & . e.r.t.      i 2 =     y.    = 5 .   s u.0     # i.%     ",
"  1 < #               , % |       v % p./   a.      s.d.< f.    I     = g.d.            # < h.O.    ",
"= 5 f                       r - - j.k.# s s u.      0   = w     -   % 2 ) l.            . =         ",
"  % ( =                     g g   . 1   o.[   r                     * z.- I                         ",
"      x.l.  - ] @                     g     - y.& 1                 %     -       %                 ",
"            @ m =                   - I       . c.v.      -                     1 * =               ",
"          , & =           v.b.=             . 2 n.        ( m.,               , M.N.        g B.    ",
"        Z * V.C.Z.      A.S.D.        F.4.# 2 V [       >.0 2 ,             1 q.>...          2 .   ",
"      , @ = G.H.-     % J..           K.L.2 = - g       P.I.#       r     # < o     g - - = 2 i     ",
"      i =   +.U.    % X Y.            o 2 =           = T.R.    -   E.  . 5 =   y.  v ^ W., ,       ",
"    K.Q.          % < . !.n                         % 2 #     v (       , %     ~.^.  % 2 Z         ",
"    | 0     v s   , 1     -                 s       * i                         /.(.= 2 &       E.  ",
"@           - -                 , o       - o.      =             %   ).K._.`.'.].A.o Z         g   ",
"=                             / @ =                             / <   4 | [.{.}.                  1 ",
"    y.-   % z =             , |.=     I r   w.. ;.    -       i 2 w.- s    X.XXXoXO.            / 2 ",
"    ^   o 2 1   $.        . 2 f.      OX$.| @ Z w     w -   1 q.%   w ;     - +X@X4           #X< 1 ",
"    $X%Xq..     X.      &X2 =           % 2 #             / < =           % 8 *X            # z %   ",
"    =X-X;X            . 2 >.      ^ u = 2 /     :X  -   . < o             , Z             o < 1     ",
"  f >X,X    - +.        % <Xr     o.A.2 #       k w 1XOXi m.E.        = 2 2X            = 5 -.^     ",
"  3X.         r           = l       * i           [ 4X0     5X6X    = * & :X    [ ;       = - r     ",
"            ( - , =   -             %             =       7X8X9X    . Z         - -                 ",
"            v 1 @ = - 0X                        / <       qXwXeX                  1 o   0 rX        ",
"            z.< %           w..         -     , < =                             / * %   0 F.        ",
"          . @ %           | @ ,         n   / & %             2 o n   l g     1 5 / ;.l         .   ",
"        , * % ..        tXyX. uXe.        / < =           % 2 ,   -   s [   # z %   ; u     = i i   ",
"      . 2 = n.x.      = 2 /   iXpX      # < w.    -       aXsX            1 z /           u 6 @     ",
"                    w.2 #     p qXdXn.  @ %     r w U.% 2 fX0           = < /       u   = 7 gX      ",
"                    5 &           0               hXjXkX,     -           =         n   @ @         ",
"    v [     ;       %                             lXzXxX      y.cX                  - vXz           ",
"          0 ;                 w . *       n...          bX      4.1 o               n.nXmX          ",
"          MX5./           u q NX< =       u.O           $.      / < #X                BXVX        % ",
"          = 2 #             f @ %             @ %             o * 1           = /               w.* ",
"  4  .  % 5 .             # < %           % 2 ,   v E.      w.2 o I     V   = &X2.-           % & CX",
"    0 = @ .             ZX< =             , z.            / X AXl r     SXDX2 @ w o.        = z o   "
};
