/* XPM */
static char *a8e2f28a49454addc67e6da7e0ef4616Wezzq2jrFeR6FbyY[] = {
/* columns rows colors chars-per-pixel */
"35 50 142 2 ",
"   c None",
".  c #1B3F15",
"X  c #3B2E0B",
"o  c #3D330D",
"O  c #3C3C0E",
"+  c #2A3711",
"@  c #233C15",
"#  c #373511",
"$  c #3B3815",
"%  c #323E1A",
"&  c #5B1E01",
"*  c #4D2606",
"=  c #4C2B07",
"-  c #432E0A",
";  c #4C2E0C",
":  c #542403",
">  c #5A2103",
",  c #532A05",
"<  c #5E260A",
"1  c #45340A",
"2  c #4B3409",
"3  c #423B0C",
"4  c #4D3B0A",
"5  c #09471B",
"6  c #024B1E",
"7  c #1B4517",
"8  c #11441A",
"9  c #124D1A",
"0  c #1C4D19",
"q  c #05521E",
"w  c #0B551E",
"e  c #0E591E",
"r  c #14571C",
"t  c #1D5519",
"y  c #125D1D",
"u  c #195D1C",
"i  c #274715",
"p  c #2E4412",
"a  c #204B17",
"s  c #2C4D15",
"d  c #304311",
"f  c #344E13",
"g  c #3D4910",
"h  c #255317",
"j  c #2B5416",
"k  c #2B5A17",
"l  c #375414",
"z  c #3D5413",
"x  c #315B17",
"c  c #3B5D15",
"v  c #16611D",
"b  c #1B641D",
"n  c #1F691C",
"m  c #2B661A",
"M  c #236C1D",
"N  c #2B6C1B",
"B  c #346317",
"V  c #346618",
"C  c #356B19",
"Z  c #386B18",
"A  c #27701D",
"S  c #2B741D",
"D  c #2F791D",
"F  c #33731B",
"G  c #337C1C",
"H  c #3A7E1B",
"J  c #054E21",
"K  c #0B4E22",
"L  c #065022",
"P  c #0A5225",
"I  c #0E5429",
"U  c #135C22",
"Y  c #11552B",
"T  c #1D6521",
"R  c #266E21",
"E  c #2B7320",
"W  c #347A24",
"Q  c #45410D",
"!  c #4D450C",
"~  c #474F0F",
"^  c #446314",
"/  c #406916",
"(  c #37801C",
")  c #3C831C",
"_  c #3D8225",
"`  c #40871C",
"'  c #438B1C",
"]  c #488F1D",
"[  c #4C931C",
"{  c #50971B",
"}  c #549B1B",
"|  c #589F1B",
" . c #5CA21B",
".. c #61A71B",
"X. c #65AA1B",
"o. c #6BAF1C",
"O. c #69AE1B",
"+. c #6BB01B",
"@. c #6CB11B",
"#. c #6CB01B",
"$. c #6DB21B",
"%. c #6EB31B",
"&. c #6EB21B",
"*. c #6FB41B",
"=. c #6DB11D",
"-. c #70B51B",
";. c #70B51A",
":. c #71B61A",
">. c #72B71A",
",. c #71B61C",
"<. c #73B71C",
"1. c #74B71F",
"2. c #73B81A",
"3. c #74B91B",
"4. c #75BA1A",
"5. c #77BB1A",
"6. c #76BA1B",
"7. c #75B91C",
"8. c #78BC1B",
"9. c #78BB1D",
"0. c #78BB1F",
"q. c #79BC1D",
"w. c #7ABD1E",
"e. c #7CBF1F",
"r. c #428724",
"t. c #448922",
"y. c #468D20",
"u. c #468A24",
"i. c #498D24",
"p. c #539721",
"a. c #589C22",
"s. c #5DA022",
"d. c #61A522",
"f. c #64A723",
"g. c #64A821",
"h. c #68AC20",
"j. c #71B421",
"k. c #78BA22",
"l. c #7CBD22",
"z. c #7DBE22",
"x. c #7DC01E",
"c. c #7FC122",
/* pixels */
"                                                                      ",
"                                                                      ",
"                      2.7.7.k.  w.w.z.z.e.e.x.c.                      ",
"                  =.$.%.$.*.-.,.-.-.3.3.4.4.5.8.w.z.                  ",
"              h.X.X.O.O.O.@.@.@.$.*.*.*.-.-.-.4.3.3.3.9.              ",
"          d.f.......X.X.X.X.X.O.O.O.O.$.@.$.$.*.-.-.-.-.<.            ",
"      s.| |  . . . . . . .....X...X.X.X.X.O.O.O.O.o.o.$.$.j.          ",
"    a.} } | } | |  . . . . . . . .........X...X.O.X.O.O.O.O.o.        ",
"    p.{ { { { | { } | { | | | |  . . . . . . . .......X.X.X.X.        ",
"    [ [ [ [ [ { { { { { } } { } { } }  . . . . . . . . . .....g.      ",
"  i.' ' ' [ ' [ ] [ [ [ [ [ { { { { { } { } } | } | |  .| |  . . .    ",
"u.) ' ' ' ' ' ' ' ] ] [ ] [ [ [ [ [ { [ { { { } { } } } | | | |  .s.  ",
"r.) ) ) ) ` ) ' ) ' ' ' ] ' ' ' ] [ ] [ [ [ [ [ [ [ { { { { } { } }   ",
"  _ ( H ) ) ) ) ) ) ) ) ' ) ' ' ) ] ' ' ' ] ] ] [ [ [ [ [ [ [ { { }   ",
"  G G G G G G G ) ( ( ( ) ) ) ) ) ' ) ) ' ' ' ' ' ' ] ] ] [ [ [ [ [   ",
"W D D D D G G G ( G ( ( ( ( ( ( ^ ) ) ) ) ) ) ' ) ' ) ' ' ' ' ' ' ]   ",
"  S A S S D S D D D D G D G D ( ~ ! / H ( ( ( ) ) ) ) ' ) ' ) ' ' ' i.",
"  S A A A A A S S S S D D F D D c > , F G G ( G ( ( ( ( ( ) ) ) ) ) t.",
"  M M M M M M A M A S A A z c S Z , , Z D D C G G G G G G G H ( H _   ",
"  M n n n M M n M M M M l , Q A m , > B S ~ , 4 c F D D G G G G H r.  ",
"  T b b b b n n n M n n j > , m N 2 > x m , & Q N D A D S D D S W     ",
"    T v b v b v b b b n n 3 & f M 2 & k g & 2 N M A A M A S A D       ",
"    U y y y y v a h u v v j > 1 b 2 & f , : k n M M M M M M M A       ",
"    U e e y y r u O O u v u 1 > s = > O : 3 n n n n n n M M M E       ",
"      U P w e e e i : p e e d & o * & = > j b b v b n b b n n         ",
"        w w w w w w o , 0 e 0 : : & : : : t e v v v v v v b T         ",
"        L q q q q q 9 = = 7 r = & & & & = r y e y y y y v             ",
"          L 6 q L 6 q 7 : = 7 - & & & & 1 w w e w e U U U             ",
"                P J J 6 . : , * & & & & o L w w e P U                 ",
"                      P K $ & & & & & & 1 P                           ",
"                              & & & & & <                             ",
"                              & & & & &                               ",
"                                & & & &                               ",
"                                & & & &                               ",
"                                > & > >                               ",
"                                > & & >                               ",
"                                > & & &                               ",
"                                > & & &                               ",
"                                & & & &                               ",
"                                < & & &                               ",
"                                & & & :                               ",
"                                & & & &                               ",
"                                & & & &                               ",
"                                & & & &                               ",
"                              % & & & & ;                             ",
"                      Y Y   I # : X * X + K I K                       ",
"                  Y P J J 6 K @ + . + . 8 8 6 J J J P                 ",
"                  J 6 6 6 6 5 6 5 6 5 6 J 5 6 6 6 J J                 ",
"                          K L J J J J J J P                           ",
"                                                                      "
};
