/* XPM */
static char *result[] = {
/* columns rows colors chars-per-pixel */
"50 50 209 2 ",
"   c #B0952E",
".  c #BE9F2B",
"X  c #B69A32",
"o  c #B19739",
"O  c #B99E3B",
"+  c #BFA02E",
"@  c #BFA130",
"#  c #BCA03B",
"$  c #BDA23E",
"%  c #D5AE1D",
"&  c #DBB31B",
"*  c #DCB419",
"=  c #DDB519",
"-  c #DDB51A",
";  c #DFB61A",
":  c #DFB71A",
">  c #D9B11C",
",  c #D8B11F",
"<  c #DCB21F",
"1  c #E1B717",
"2  c #E3B815",
"3  c #E4BA15",
"4  c #E7BB14",
"5  c #E4B916",
"6  c #E6BB16",
"7  c #E7BC16",
"8  c #E8BC13",
"9  c #EABD13",
"0  c #EABE12",
"q  c #EBBE12",
"w  c #EBBF13",
"e  c #ECBF11",
"r  c #EDBF11",
"t  c #ECBF12",
"y  c #E9BD14",
"u  c #E9BF15",
"i  c #E3B61E",
"p  c #E6B71F",
"a  c #E1B818",
"s  c #E5BB18",
"d  c #E6BA1B",
"f  c #E1B81D",
"g  c #E5BC1E",
"h  c #E6BC1E",
"j  c #EEBD19",
"k  c #EEBF18",
"l  c #ECBE1E",
"z  c #CAA726",
"x  c #CBA823",
"c  c #CFAC24",
"v  c #C3A32B",
"b  c #C2A32D",
"n  c #C4A52C",
"m  c #C7A62C",
"M  c #C4A42F",
"N  c #C4A72E",
"B  c #C7A72E",
"V  c #C6A62F",
"C  c #C8A72A",
"Z  c #CDA62D",
"A  c #CFA62D",
"S  c #CEAB28",
"D  c #CDAB2B",
"F  c #CFAC28",
"G  c #CFAD28",
"H  c #C9A92E",
"J  c #CFAF2C",
"K  c #D3AE20",
"L  c #D4AF23",
"P  c #D0AC24",
"I  c #D0AC25",
"U  c #D1AC26",
"Y  c #DDAF26",
"T  c #D1A72A",
"R  c #D0AE28",
"E  c #D3AF2B",
"W  c #D3AF2D",
"Q  c #D5B127",
"!  c #DCB621",
"~  c #D4B028",
"^  c #D6B028",
"/  c #D7B228",
"(  c #D6B22A",
")  c #DBB42B",
"_  c #C0A230",
"`  c #C0A433",
"'  c #C2A432",
"]  c #C6A732",
"[  c #C1A034",
"{  c #C0A335",
"}  c #C5A635",
"|  c #C8A931",
" . c #CFA935",
".. c #CFAA34",
"X. c #CEAB37",
"o. c #C5A63B",
"O. c #C5A93C",
"+. c #CFAB3B",
"@. c #D5B23E",
"#. c #F1C30F",
"$. c #F2C30E",
"%. c #F3C40D",
"&. c #F3C40E",
"*. c #F4C50D",
"=. c #F5C50D",
"-. c #F7C70C",
";. c #F6C60D",
":. c #F4C40E",
">. c #F4C50E",
",. c #F5C60F",
"<. c #F7C80E",
"1. c #F6C80F",
"2. c #F7C80F",
"3. c #F7C90F",
"4. c #F9C80B",
"5. c #FAC90A",
"6. c #FBC90A",
"7. c #FAC80B",
"8. c #FBCA0A",
"9. c #FCCA09",
"0. c #FECB09",
"q. c #FCC90B",
"w. c #FDCA0A",
"e. c #FFCC08",
"r. c #F8C90D",
"t. c #F9C90D",
"y. c #FBC80D",
"u. c #ECC011",
"i. c #EFC212",
"p. c #F3C212",
"a. c #F6C610",
"s. c #F3C114",
"d. c #F1C016",
"f. c #F2C718",
"g. c #F5C91A",
"h. c #FACB1A",
"j. c #E7C227",
"k. c #F5C924",
"l. c #F5CB2C",
"z. c #EDC332",
"x. c #E9C43D",
"c. c #F3CA30",
"v. c #FDD231",
"b. c #B89E40",
"n. c #BEA445",
"m. c #CCAE43",
"M. c #C0A64A",
"N. c #CFB145",
"B. c #DABB4B",
"V. c #DEBE4A",
"C. c #DEBE4C",
"Z. c #CEB458",
"A. c #CDB35E",
"S. c #D1B550",
"D. c #D2B653",
"F. c #E7C446",
"G. c #EAC644",
"H. c #E2C14C",
"J. c #E4C34E",
"K. c #E4C34F",
"L. c #F0CB46",
"P. c #E5C657",
"I. c #EAC852",
"U. c #DDC165",
"Y. c #E1C976",
"T. c #D0B483",
"R. c #CDAE91",
"E. c #CFB195",
"W. c #D3B596",
"Q. c #D7BB9A",
"!. c #E6D492",
"~. c #E9D492",
"^. c #DEC4A0",
"/. c #DEC5A3",
"(. c #DFC7A4",
"). c #E0C8A4",
"_. c #E1C9A5",
"`. c #E2CAA6",
"'. c #E5CEA7",
"]. c #EBD5A2",
"[. c #EBD6A2",
"{. c #E8D3A5",
"}. c #E7D2AB",
"|. c #ECD8AF",
" X c #F3DEA1",
".X c #F0DEAD",
"XX c #F2E0B4",
"oX c #F3E1B5",
"OX c #F3E2B5",
"+X c #F5E4B7",
"@X c #F6E5B8",
"#X c #F7E6B8",
"$X c #F7E7B8",
"%X c #F8E8B9",
"&X c #F8E8BA",
"*X c #F9E9BA",
"=X c #F9EABB",
"-X c #FAEABB",
";X c #FAEBBB",
":X c #FAEBBC",
">X c #FBECBC",
",X c #FCEDBD",
"<X c #FCEEBE",
"1X c #FDEEBE",
"2X c #FDEFBE",
"3X c #FEF0BF",
"4X c #FEF1C0",
"5X c #FFF2C1",
"6X c None",
/* pixels */
"6X6X6X6X6X6X6X6X6X6X6X6X6X6X6X6X6X6X6X6X6X6X6X6X6X6X6X6X6X6X6X6X6X6X6X6X6X6X6X6X6X6X6X6X6X6X6X6X6X6X",
"6X6X6X6X6X6X6X6X6X6X6X6X6X6X6X6X6X6X6X6X6X6X6X6X6X6X6X6X6X6X6X6X6X6X6X6X6X6X6X6X6X6X6X6X6X6X6X6X6X6X",
"6X6X6X6X6X6X6X6X6X6X6X6X6X6X6X6X6X6X6X6X6X6X6X6X6X6X6X6X6X6X6X6X6X6X6X6X6X6X6X6X6X6X6X6X6X6X6X6X6X6X",
"6X6X6X6X6X6X6X6X6X6X6X6X6X6X6X6X6X6X6X6X6X6X6X6X6X6X6X6X6X6X6X6X6X6X6X6X6X6X6X6X6X6X6X6X6X6X6X6X6X6X",
"6X6X6X6X6X6X6X6X6X6X6X6X6X6X6X6X6X6X6X6X6X6X6X6X6X6X6X6X6X6X6X6X6X6X6X6X6X6X6X6X6X6X6X6X6X6X6X6X6X6X",
"6X6X6X6X6X6X6X6X6X6X6X6X6X6X6X6X6X6X6X6X6X6X6X6X6X6X6X6X6X6X6X6X6X6X6X6X6X6X6X6X6X6X6X6X6X6X6X6X6X6X",
"6X6X6X6X6X6X6X6X6X6X6X6X6X6X6X6X6X6X6X6X6X6X6X6X6X6X6X6X6X6X6X6X6X6X6X6X6X6X6X6X6X6X6X6X6X6X6X6X6X6X",
"6X6X6X6X6X6X6X6X6X6X6X6X6X6X6X6X6X6X6X6X6X6X6X6X6X6X6X6X6X6X6X6X6X6X6X6X6X6X6X6X6X6X6X6X6X6X6X6X6X6X",
"6X6X6X6X6X6X6X6X6X6X6X6X6X6X6X6X6X6X6X6X6X6X6X6X6X6X6X6X6X6X6X6X6X6X6X6X6X6X6X6X6X6X6X6X6X6X6X6X6X6X",
"6X6X6X6X6X6X6X6X6X6X6X6X6X6X6X6X6X6X6X6X6X6X6X6X6X6X6X6X6X6X6X6X6X6X6X6X6X6X6X6X6X6X6X6X6X6X6X6X6X6X",
"6X6X6X6X6X6X6X6X6X6X6X6X6X6X6X6X6X6X6X6X6X6X6X6X6X6X6X6X6X6X6X6X6X6X6X6X6X6X6X6X6X6X6X6X6X6X6X6X6X6X",
"6X6X6X6X6X6X6X6X6X6X6X6X6X6X6X6X6X6X6X6X6X6X6X6X6X6X6X6X6X6X6X6X6X6X6X6X6X6X6X6X6X6X6X6X6X6X6X6X6X6X",
"6X6X6X6X6X6X6X6X6X6X6X6X6X6X6X6X6X6X6X6X6X6X6X6X6X6XE._.'.R.6X6X6X6X6X6X6X6X6X6X6X6X6X6X6X6X6X6X6X6X",
"6X6X6X6X6X6X6X6X6X6X6X6X6X6X6X6X6X6X6X6X6X6X6X6X6XQ.+X>X=X^.6X6X6X6X6X6X6X6X6X6X6X6X6X6X6X6X6X6X6X6X",
"6X6X6X6X6X6X6X6X6X6X6X6X6X6X6X6X6X6X6X6X6X6X6X6XW.=X-X3X&X/.6X6X6X6X6X6X6X6X6X6X6X6X6X6X6X6X6X6X6X6X",
"6X6X6X6X6X6X6X6X6X6X6X6X6X6X6X6X6X6X6X6X6X6X6X6X@X%X4X<XXX6X6X6X6X6X6X6X6X6X6X6X6X6X6X6X6X6X6X6X6X6X",
"6X6X6X6X6X6X6X6X6X6X6X6X6X6X6X6X6X6X6X6X6X6X6X'.<X1X4X*X).6X6X6X6X6X6X6X6X6X6X6X6X6X6X6X6X6X6X6X6X6X",
"6X6X6X6X6X6X6X6X6X6X6X6X6X6X6X6X6X6X6X6X6X6X6XoX*X5X,XOX6X6X6X6X6X6X6X6X6X6X6X6X6X6X6X6X6X6X6X6X6X6X",
"6X6X6X6X6X6X6X6X6X6X6X6X6X6X6X6X6X6X6X6X6X6X(.:X;X5X-X|.6X6X6X6X6X6X6X6X6X6X6X6X6X6X6X6X6X6X6X6X6X6X",
"6X6X6X6X6X6X6X6X6X6X6X6X6X6X6X6X6X6X{ B 6X6X}.:X5X5X#X`.6X6X6X6X6X6X6X6X6X6X6X6X6X6X6X6X6X6X6X6X6X6X",
"6X6X6X6X6X6X6X6X6X6X6X6X6X6X6X6XQ t ;.=.-.E {.-X5X2XoXT.6X6X6X6X6X6X6X6X6X6X6X6X6X6X6X6X6X6X6X6X6X6X",
"6X6X6X6X6X6X6X6X6X6X6X6X6X6X6XH >.a n b K l ].-X5X*X.X+.1 ' 6X6X6X6X6X6X6X6X6X6X6X6X6X6X6X6X6X6X6X6X",
"6X6X6X6X6X6X6X6X6X6X6X6X6X6X6Xw & 6X6X6X6X[ [.-X5X$X Xz.F.x.k.,.s ] 6X6X6X6X6X6X6X6X6X6X6X6X6X6X6X6X",
"6X6X6X6X6X6X6X6X6X6X6X6X6X6X6X%._ 6X6XC 7 i.V.A.!.%XY.W , h N.J.v.a.L 6X6X6X6X6X6X6X6X6X6X6X6X6X6X6X",
"6X6X6X6X6X6X6X6X6X6X6X6X6X6X/ ; 6X6X6Xw r.g.@.T ) ~.g = 7.e.f 6XS.G.h.Q 6X6X6X6X6X6X6X6X6X6X6X6X6X6X",
"6X6X6X6X6X6X6X6X6X6X6X6X6X6X: + 6X6XG t.1.c. .Y 0.} *.x M 6 5.| 6X6XD.l.D 6X6X6X6X6X6X6X6X6X6X6X6X6X",
"6X6X6X6X6X6X6X6X6X6X6X6X6XI 3 6X6X6X2 1.2.L.A p e.% 6.y 6X6X6X* 6X6X6XM.C.b.6X6X6X6X6X6X6X6X6X6X6X6X",
"6X6X6X6X6X6X6X6X6X6X6X6X6X- v 6X6X6Xe 1.2.I.Z j e.> e.&.$ 6X6X6X6X6X6X6XZ.U.6X6X6X6X6X6X6X6X6X6X6X6X",
"6X6X6X6X6X6X6X6X6X6X6X6XF c 6X6X6X6Xr 1.2.P...d.e.4 -.5.@ 6X6X6X6X6X6X6X6Xn.6X6X6X6X6X6X6X6X6X6X6X6X",
"6X6X6X6X6X6X6X6X6X6X6X6X! # 6X6X6X6X5 2.<.K.X.s.e.9.q e.z 6X6X6X6X6X6X6X6X6X6X6X6X6X6X6X6X6X6X6X6X6X",
"6X6X6X6X6X6X6X6X6X6X6X6XX 6X6X6X6X6XS 3.1.H.o.k e.e.8 e.a 6X6X6X6X6X6X6X6X6X6X6X6X6X6X6X6X6X6X6X6X6X",
"6X6X6X6X6X6X6X6X6X6X6X6X6X6X6X6X6X6X6Xu f.B.6Xd e.e.8 e.$.6X6X6X6X6X6X6X6X6X6X6X6X6X6X6X6X6X6X6X6X6X",
"6X6X6X6X6X6X6X6X6X6X6X6X6X6X6X6X6X6X6XR j.m.6X^ w.e.9 8.9.V 6X6X6X6X6X6X6X6X6X6X6X6X6X6X6X6X6X6X6X6X",
"6X6X6X6X6X6X6X6X6X6X6X6X6X6X6X6X6X6X6X6XJ O.6X6Xp.e.:.t e.P 6X6X6X6X6X6X6X6X6X6X6X6X6X6X6X6X6X6X6X6X",
"6X6X6X6X6X6X6X6X6X6X6X6X6X6X6X6X6X6X6X6X` N 6X6XU y.4.u.e.( 6X6X6X6X6X6X6X6X6X6X6X6X6X6X6X6X6X6X6X6X",
"6X6X6X6X6X6X6X6X6X6X6X6X6X6X6X6X6X6X6X6X6Xo 6X6X6Xi q.#.e.~ 6X6X6X6X6X6X6X6X6X6X6X6X6X6X6X6X6X6X6X6X",
"6X6X6X6X6X6X6X6X6X6X6X6X6X6X6X6X6X6X6X6X6X6X6X6X6XO < *.0 m 6X6X6X6X6X6X6X6X6X6X6X6X6X6X6X6X6X6X6X6X",
"6X6X6X6X6X6X6X6X6X6X6X6X6X6X6X6X6X6X6X6X6X6X6X6X6X6X6X.   6X6X6X6X6X6X6X6X6X6X6X6X6X6X6X6X6X6X6X6X6X",
"6X6X6X6X6X6X6X6X6X6X6X6X6X6X6X6X6X6X6X6X6X6X6X6X6X6X6X6X6X6X6X6X6X6X6X6X6X6X6X6X6X6X6X6X6X6X6X6X6X6X",
"6X6X6X6X6X6X6X6X6X6X6X6X6X6X6X6X6X6X6X6X6X6X6X6X6X6X6X6X6X6X6X6X6X6X6X6X6X6X6X6X6X6X6X6X6X6X6X6X6X6X",
"6X6X6X6X6X6X6X6X6X6X6X6X6X6X6X6X6X6X6X6X6X6X6X6X6X6X6X6X6X6X6X6X6X6X6X6X6X6X6X6X6X6X6X6X6X6X6X6X6X6X",
"6X6X6X6X6X6X6X6X6X6X6X6X6X6X6X6X6X6X6X6X6X6X6X6X6X6X6X6X6X6X6X6X6X6X6X6X6X6X6X6X6X6X6X6X6X6X6X6X6X6X",
"6X6X6X6X6X6X6X6X6X6X6X6X6X6X6X6X6X6X6X6X6X6X6X6X6X6X6X6X6X6X6X6X6X6X6X6X6X6X6X6X6X6X6X6X6X6X6X6X6X6X",
"6X6X6X6X6X6X6X6X6X6X6X6X6X6X6X6X6X6X6X6X6X6X6X6X6X6X6X6X6X6X6X6X6X6X6X6X6X6X6X6X6X6X6X6X6X6X6X6X6X6X",
"6X6X6X6X6X6X6X6X6X6X6X6X6X6X6X6X6X6X6X6X6X6X6X6X6X6X6X6X6X6X6X6X6X6X6X6X6X6X6X6X6X6X6X6X6X6X6X6X6X6X",
"6X6X6X6X6X6X6X6X6X6X6X6X6X6X6X6X6X6X6X6X6X6X6X6X6X6X6X6X6X6X6X6X6X6X6X6X6X6X6X6X6X6X6X6X6X6X6X6X6X6X",
"6X6X6X6X6X6X6X6X6X6X6X6X6X6X6X6X6X6X6X6X6X6X6X6X6X6X6X6X6X6X6X6X6X6X6X6X6X6X6X6X6X6X6X6X6X6X6X6X6X6X",
"6X6X6X6X6X6X6X6X6X6X6X6X6X6X6X6X6X6X6X6X6X6X6X6X6X6X6X6X6X6X6X6X6X6X6X6X6X6X6X6X6X6X6X6X6X6X6X6X6X6X",
"6X6X6X6X6X6X6X6X6X6X6X6X6X6X6X6X6X6X6X6X6X6X6X6X6X6X6X6X6X6X6X6X6X6X6X6X6X6X6X6X6X6X6X6X6X6X6X6X6X6X",
"6X6X6X6X6X6X6X6X6X6X6X6X6X6X6X6X6X6X6X6X6X6X6X6X6X6X6X6X6X6X6X6X6X6X6X6X6X6X6X6X6X6X6X6X6X6X6X6X6X6X"
};
