/* XPM */
static char *_647293528391[] = {
/* columns rows colors chars-per-pixel */
"50 50 218 2 ",
"   c #3C1C0F",
".  c #391E12",
"X  c #3D2013",
"o  c #2E3B16",
"O  c #421E11",
"+  c #522C1C",
"@  c #592C16",
"#  c #5D321B",
"$  c #5A361F",
"%  c #4F2310",
"&  c #62351B",
"*  c #643A1D",
"=  c #693A1E",
"-  c #663417",
";  c #602F14",
":  c #583826",
">  c #512D20",
",  c #623722",
"<  c #653B23",
"1  c #6B3D23",
"2  c #643C2A",
"3  c #693F29",
"4  c #783721",
"5  c #35441A",
"6  c #39421C",
"7  c #394B1C",
"8  c #374817",
"9  c #3E4D22",
"0  c #3C4926",
"q  c #3F5120",
"w  c #73401E",
"e  c #4A4923",
"r  c #425323",
"t  c #4B542A",
"y  c #4C5C2D",
"u  c #475826",
"i  c #595C2B",
"p  c #545926",
"a  c #575936",
"s  c #6B4125",
"d  c #65412C",
"f  c #6B422C",
"g  c #6E4A2F",
"h  c #734326",
"j  c #72452C",
"k  c #744A2D",
"l  c #7B4A2C",
"z  c #774627",
"x  c #674433",
"c  c #6C4533",
"v  c #6C4A35",
"b  c #6E4E3C",
"n  c #664931",
"m  c #754B34",
"M  c #7B4E33",
"N  c #734F3C",
"B  c #734933",
"V  c #7E5135",
"C  c #75523A",
"Z  c #7C533B",
"A  c #7B5A39",
"S  c #6C5B31",
"D  c #4B6123",
"F  c #4E612C",
"G  c #556327",
"H  c #5D633A",
"J  c #596737",
"K  c #5A7035",
"L  c #63632A",
"P  c #636534",
"I  c #676539",
"U  c #74743D",
"Y  c #79723D",
"T  c #755444",
"R  c #7B5541",
"E  c #7E5A44",
"W  c #7D5B4B",
"Q  c #795749",
"!  c #6A6C43",
"~  c #696A42",
"^  c #796C47",
"/  c #687548",
"(  c #7A7244",
")  c #75764C",
"_  c #787648",
"`  c #6B7953",
"'  c #787A55",
"]  c #8C170C",
"[  c #921E12",
"{  c #99110B",
"}  c #8A2916",
"|  c #863F23",
" . c #845334",
".. c #82563C",
"X. c #85593D",
"o. c #895B3D",
"O. c #826E3E",
"+. c #845B43",
"@. c #8A5E43",
"#. c #845E4A",
"$. c #825740",
"%. c #8D6145",
"&. c #84624B",
"*. c #8C644C",
"=. c #886B48",
"-. c #926546",
";. c #91664C",
":. c #92684F",
">. c #9B6E4F",
",. c #867A4A",
"<. c #8A7B4C",
"1. c #8A784A",
"2. c #957A4E",
"3. c #8B6651",
"4. c #8E6A54",
"5. c #896857",
"6. c #946C54",
"7. c #946E59",
"8. c #9A6F53",
"9. c #897B53",
"0. c #837F57",
"q. c #9C7155",
"w. c #96715A",
"e. c #9C745B",
"r. c #947B5B",
"t. c #9D7B5C",
"y. c #957855",
"u. c #A2795E",
"i. c #A17457",
"p. c #957561",
"a. c #9D7A62",
"s. c #9A7A66",
"d. c #A27C63",
"f. c #A27F69",
"g. c #738558",
"h. c #788766",
"j. c #8C835B",
"k. c #898658",
"l. c #938355",
"z. c #94845E",
"x. c #9B835E",
"c. c #98895A",
"v. c #908654",
"b. c #A38D5D",
"n. c #A1845C",
"m. c #888A66",
"M. c #9D8563",
"N. c #968C63",
"B. c #9B8B64",
"V. c #9D8E6A",
"C. c #988869",
"Z. c #818F76",
"A. c #899677",
"S. c #959272",
"D. c #A38564",
"F. c #A98267",
"G. c #A28C63",
"H. c #AA8E63",
"J. c #A4826B",
"K. c #A8836C",
"L. c #A58C6B",
"P. c #A98E6B",
"I. c #A3926B",
"U. c #AC926C",
"Y. c #AD996F",
"T. c #AE9063",
"R. c #B1966C",
"E. c #B4996D",
"W. c #A88874",
"Q. c #A49171",
"!. c #AC9473",
"~. c #AE9975",
"^. c #AE9579",
"/. c #AD9B7A",
"(. c #A39C75",
"). c #B19773",
"_. c #B49B74",
"`. c #B99E74",
"'. c #B49C7B",
"]. c #B89F7C",
"[. c #BCA175",
"{. c #B4A17C",
"}. c #BBA27C",
"|. c #ABA27C",
" X c #C1A67C",
".X c #949E83",
"XX c #B39D83",
"oX c #98A893",
"OX c #B4A383",
"+X c #BCA583",
"@X c #BEA885",
"#X c #BCA688",
"$X c #BEAA8B",
"%X c #B3A887",
"&X c #BDAB92",
"*X c #ABAA91",
"=X c #A5B4A4",
"-X c #C2AA84",
";X c #C3AD8B",
":X c #C6B18F",
">X c #C8B18D",
",X c #C2AE91",
"<X c #C2AF98",
"1X c #C5B194",
"2X c #C9B494",
"3X c #CAB69A",
"4X c #CCB99C",
"5X c #C9B69A",
"6X c #D1BD9E",
"7X c #CEBCA3",
"8X c #C3B8A0",
"9X c #D0BFA3",
"0X c #D1C0A6",
"qX c #D3C2A9",
"wX c #D6C7B1",
"eX c #D9CAB4",
"rX c #DFD0BA",
"tX c None",
/* pixels */
"tXtXtXtXtXtXtXtXtXtXtXtXtXtXtXtXtXtXtXtXtXtXtXtXtXtXtXtXtXtXtXtXtXtXtXtXtXtXtXtXtXtXtXtXtXtXtXtXtXtX",
"tXtXtXtXtXtXtXtXtXtXtXtXtXtXtXtXtXtXtXtXtXtXtXtXtXtXtXtXtXtXtXtXtXtXtXtXtXtXtXtXtXtXtXtXtXtXtXtXtXtX",
"tXtXtXtXtXtXtXtXtXtXtXtXtXtXtXtXtXtXtXtXtXr u u ) -Xj.y tXtXtXtXtXtXtXtXtXtXtXtXtXtXtXtXtXtXtXtXtXtX",
"tXtXtXtXtXtXtXtXtXtXtXtXtXtXtXtXtXtXtXOX' ! 9.z.'.+X_ 7 r r y I tXtXtXtXtXtXtXtXtXtXtXtXtXtXtXtXtXtX",
"tXtXtXtXtXtXtXtXtXtXtXtXtXtXtXtX>X3X$X~.<X5X-X$X;X'.H o H m.M.'./.L.}.tXtXtXtXtXtXtXtXtXtXtXtXtXtXtX",
"tXtXtXtXtXtXtXtXtXtXtXtXtXrX+Xk.N.&Xz.V./.7X0X1X4X%Xt a ~.-X!.<X-X'.2X:X2XtXtXtXtXtXtXtXtXtXtXtXtXtX",
"tXtXtXtXtXtXtXtXtXtXtXtXOX0X(.K ) N.N.,X^.7XqX1X1X1Xm.t.H.].+X4X!.;X2X2X-X}.tXtXtXtXtXtXtXtXtXtXtXtX",
"tXtXtXtXtXtXtXtXtXtXtXY Y k.U m.S.&X#X%XU.G.$X1X&X0X5XH.R.R._.,X'.2X-X;X].4XwXtXtXtXtXtXtXtXtXtXtXtX",
"tXtXtXtXtXtXtXtXtXtXk.G Y G.m.g.k.V.G.U Y b.!.w.L.'.!.u.[.[.).).1X3X2X$X<X9X9X:XtXtXtXtXtXtXtXtXtXtX",
"tXtXtXtXtXtXtXtXtX8X7X|.N.l.Y.$X4X$XI.L L k s , 2 d 3 c C 4.G.'.4X>X$X<X2X2X4X-X'.tXtXtXtXtXtXtXtXtX",
"tXtXtXtXtXtXtXtXtXwXqXeX0X~./.4X2X'.=.* < c R Q W &.&.E c , # ^ _.}.4X3X+X'.+X'.}.tXtXtXtXtXtXtXtXtX",
"tXtXtXtXtXtXtXtX/.XX&XwX0X3X;X+XR.A & x Q ..#.#.E Z +.#.5.$.N 2 f n.:X'.+XOX3X9X>X}.tXtXtXtXtXtXtXtX",
"tXtXtXtXtXtXtXtX9.l.N.C.XX^.}.{.h * k Q #...#.m l h l M 3.#.#.T c h u.@X9X4X2X0X;X;XtXtXtXtXtXtXtXtX",
"tXtXtXtXtXtXtXtX/.1X<X5X,X]._.X.& v M C $.+.@.l [ ] ] 4 $.Z #.#.Z B Z $X,X#X1X1X'.U.tXtXtXtXtXtXtXtX",
"tXtXtXtXtXtXtXtXN./.$X$X}.U.H.= 1 m V m +.@.@.z [ { { 4 +.$.Q #. .j 3 OX6X4X4X4X2X_.1XtXtXtXtXtXtXtX",
"tXtXtXtXtXtXtXtX/ c.C.;X'.l.G.* - B $.E :.:.-. .| [ }  .+. .N R  .1 ; ^.2X+X'._.}.).tXtXtXtXtXtXtXtX",
"tXtXtXtXtXtXtXtX*X' V.4X(.$X-X$ , 2 B m ..+.o.X. . . . .X...Z C B 3 @ ^.;X}.P.L.+X_.tXtXtXtXtXtXtXtX",
"tXtXtXtXtXtXtXtXZ.! z._.c.;X'.* B : g ..$.v -.i.>.Z -.i.;.A -.@.N 3 = $X6X;X+X'.-X3XtXtXtXtXtXtXtXtX",
"tXtXtXtXtXtXtXtX,.,./.}.c.).P.@ @ < 3 V $.E 3.8.>.X.@.;.:.&.6.+.B < - XX}.].T.M.}._.tXtXtXtXtXtXtXtX",
"tXtXtXtXtXtXtXtXb.b.[.>Xl.b.R.$ @ z l j M @.-.$.X.+.@...@.%.$.Z k & # ).U.P.).D.}.`.}.tXtXtXtXtXtXtX",
"tXtXtXtXtXtXtXtX,.b.b.|.,.U 2.# 1 ..o.V *.q.i.:.i.d.d.e.e.u.s.p.Z j = !.U.Q.{.;X1X;X+XtXtXtXtXtXtXtX",
"tXtXtXtXtXtXtXtXY.,.v.$XI.( <.f E @.%.+.6.u.q.:.i.e.d.s.t.a.p.Z h # ; r._.Q.k._ k.' m.tXtXtXtXtXtXtX",
"tXtXtXtXtXtXtXtX}.) I m.j.P v.s &.+.@.+.6.u.e.3.e.d.f.s.d.a.#.j f : . D.}.j.0 q 7 r y tXtXtXtXtXtXtX",
"tXtXtXtXtXtXtXtX|.m.=XH G G U s Z ..@.@.7.K.d.7.a.d.W.W.f.w.#.x n C . J.6X%X^ H r r y tXtXtXtXtXtXtX",
"tXtXtXtXtXtXtXtXS.J h.h./ _ v.s 4 $.%.3.e.f.d.7.i.f.f.e.u.7.$.: n 2.X r.$X%X'.^.9._ tXtXtXtXtXtXtXtX",
"tXtXtXtXtXtXtXtXI D / A._ }.+Xk 3 $.6.*.p.f.d.p.f.f.d.q.d.8...& g 4.X p.-X1X2X1X;X1XtXtXtXtXtXtXtXtX",
"tXtXtXtXtXtXtXtXi L e p l.'.{.k 1 +.e.6.w.f.e.w.i.K.f.i.u.>.#.# : n X r.-X:X2X,X+X].tXtXtXtXtXtXtXtX",
"tXtXtXtXtXtXtXtXu p A.g.k.$X{.C j +.e.6.d.f.e.p.i.f.F.f.F.q.*.c n d . 4.+X!.#XOX]._.tXtXtXtXtXtXtXtX",
"tXtXtXtXtXtXtXtXq 9 .X/ k.2X~.C 3 ..q.;.e.f.e.w.d.f.d.d.F.u.6.#.B f # J.7X<X,X,X5X;XtXtXtXtXtXtXtXtX",
"tXtXtXtXtXtXtXtXr 5 P ( B.;X'.A h  .%.%.7.f.e.w.s.^.f.f.d.u.;.;.*...M P.;X&X3X4X4X;XtXtXtXtXtXtXtXtX",
"tXtXtXtXtXtXtXtXg.` K z.OX3X}.X.< V @.-.w.f.e.p.e.^.K.e.u.i.;.*.;.@.Z K.'.C.D.,XOX}.tXtXtXtXtXtXtXtX",
"tXtXtXtXtXtXtXtXZ.oXF p k.XXb.V & l @.-.e.f.8.6.;.f.d.w.i.e.7.;.6.*.M P.+X,X<X<X].R.tXtXtXtXtXtXtXtX",
"tXtXtXtXtXtXtXtXg.A.G p g.S.9.X.& g V o.6.7.7.*.@.q.u.a.e.w.w.:.:.+.h D.-X,X1X;X/.) tXtXtXtXtXtXtXtX",
"tXtXtXtXtXtXtXtXF D D P ! ) G.O.s f M X.3.4.7.*.Z 7.w.7.q.8.6.#.#.Z s u.'.U.U.P.^ r F tXtXtXtXtXtXtX",
"tXtXtXtXtXtXtXtXK 7 i ( ( y.P.%.f z l V #.5.6.*.V @.@.%.@.*.*.#.V m h t.}.C.' ~ t 5 r tXtXtXtXtXtXtX",
"tXtXtXtXtXtXtXtXy _ G P I.+X+X2.* 4 h l Z Z @.+.R W #.E M M X.$.M M h P.OXH p y 6 0 r tXtXtXtXtXtXtX",
"tXtXtXtXtXtXtXtXH j.F ! _ '.>X&.% = z l  . . .M m N C  .l  . .B z h - t.}.N.V.) 5 7 t tXtXtXtXtXtXtX",
"tXtXtXtXtXtXtXtXJ J h.oXp l.E.A @ 2 m ..+.R Z $.@.R #.+.Z Z o.@.V 3 1 M.-XQ.a 6 o 5 0 tXtXtXtXtXtXtX",
"tXtXtXtXtXtXtXtXy / ! ) ( Y. X=.O + 3 C @.v M ..@.N #.3.T b #...B 2 # s.9XQ.0 o 5 0 y tXtXtXtXtXtXtX",
"tXtXtXtXtXtXtXtXH ' p O.}.{.'.&.% > , f B c 3 x f f c c 2 < < < = - % t.4XOXa o ^ N.tXtXtXtXtXtXtXtX",
"tXtXtXtXtXtXtXtXt e t M.+X!.n.C > : , 3 x x c T B C T b 2 2 s f 1 < # M.[.R.G.x.).).+XtXtXtXtXtXtXtX",
"tXtXtXtXtXtXtXtXe o e ^.+X+X_.&.O : x T T 3 2 T c N T Q c v j v 3 # + M.@X}.}.E._._.}.tXtXtXtXtXtXtX",
"tXtXtXtXtXtXtXtXq o o Y !.L.c.A   > d v x x 3 x c v v T v x v d 3 * $ x.@X}.`.E.R.T.E.tXtXtXtXtXtXtX",
"tXtXtXtXtXtX'.V.H t a ^ =.I ~ z.M.Q.^.Q.Q.Q.^.L.L.).'./.!.Q.U.P.P.P.U.R._.T.T.T.H.x.z.V.tXtXtXtXtXtX",
"tXtXtXtXtXtX+XI.B.OX@X-X+X-X,X5X7X:X:X-X>X'.;X[.-X X-X;X;X1X1X;X}.}.;X+X2X-X-X-X;X%XOX$XtXtXtXtXtXtX",
"tXtXtXtXtXtX[.}.).-X4X+X+X+X+X;X3X;X2X;X-XR.2X}.`.`.-X-X3X7X9X3X`._.`.P.2X X X-X4X@X$X,X2XtXtXtXtXtX",
"tXtXtXtXtX2X_.'.P.,X7X<X@X}.`.}.$X;X;X1Xt.'.;X1XE.+X+XR.3XeX$X'.XX+X-XU.;X[.[.}.}.}.+X;X;XtXtXtXtXtX",
"tXtXtXtXtXtX+X{.y.).1X$X{.@XE.E.}.}.{.+X2.@X`.@XR.}.}.)._.1XU.U.+X-X+XU.}._.-X`.}.].@X1XtXtXtXtXtXtX",
"tXtXtXtXtXtXtXtXtXtXtXtXtXtXtXtXtXtXtXtXtXtXtXtXtXtXtXtXtXtXtXtXtXtXtXtXtXtXtXtXtXtXtXtXtXtXtXtXtXtX",
"tXtXtXtXtXtXtXtXtXtXtXtXtXtXtXtXtXtXtXtXtXtXtXtXtXtXtXtXtXtXtXtXtXtXtXtXtXtXtXtXtXtXtXtXtXtXtXtXtXtX"
};
