/* XPM */
static char *result[] = {
/* columns rows colors chars-per-pixel */
"50 50 123 2 ",
"   c #311A15",
".  c #3A1D17",
"X  c #45231C",
"o  c #4D231A",
"O  c #55261C",
"+  c #5A281E",
"@  c #612C1F",
"#  c #532A21",
"$  c #5C2C22",
"%  c #4D3A30",
"&  c #642D21",
"*  c #6A2F22",
"=  c #6D3123",
"-  c #65372B",
";  c #6E382B",
":  c #733325",
">  c #7C3727",
",  c #74392B",
"<  c #7E3929",
"1  c #773E31",
"2  c #7B3E30",
"3  c #5D483E",
"4  c #6B4136",
"5  c #744335",
"6  c #7D4333",
"7  c #644E42",
"8  c #694C40",
"9  c #695144",
"0  c #795F50",
"q  c #7F6456",
"w  c #726D6B",
"e  c #7D736F",
"r  c #803827",
"t  c #843B2A",
"y  c #8C3E2B",
"u  c #903F2C",
"i  c #86402D",
"p  c #8C402F",
"a  c #94412D",
"s  c #9C442F",
"d  c #834434",
"f  c #8C4533",
"g  c #854E3F",
"h  c #8C4B3B",
"j  c #954532",
"k  c #9B4431",
"l  c #934935",
"z  c #984A37",
"x  c #944D3B",
"c  c #984C38",
"v  c #92513F",
"b  c #9B523F",
"n  c #874F40",
"m  c #8C5645",
"M  c #83594B",
"N  c #8D5949",
"B  c #945544",
"V  c #9B5442",
"C  c #955D4C",
"Z  c #9A5D4B",
"A  c #92604F",
"S  c #9A614F",
"D  c #816556",
"F  c #866758",
"G  c #85695B",
"H  c #8A6D5D",
"J  c #926555",
"K  c #956857",
"L  c #946D5C",
"P  c #9D6D5B",
"I  c #99705F",
"U  c #A06451",
"Y  c #A06854",
"T  c #A36D5B",
"R  c #A5725F",
"E  c #8F7060",
"W  c #937363",
"Q  c #987766",
"!  c #997867",
"~  c #9D7D6B",
"^  c #8E7F78",
"/  c #A57563",
"(  c #A47966",
")  c #A07F6C",
"_  c #AF7D6A",
"`  c #99877E",
"'  c #A4816E",
"]  c #AB816E",
"[  c #A78371",
"{  c #A98572",
"}  c #AF8A76",
"|  c #B28B77",
" . c #BA8A76",
".. c #B48E79",
"X. c #BC8E79",
"o. c #B6917C",
"O. c #BA927D",
"+. c #C1947E",
"@. c #B79684",
"#. c #BE9680",
"$. c #BF9882",
"%. c #A49993",
"&. c #B49D91",
"*. c #B9A599",
"=. c #BEAFA7",
"-. c #C19580",
";. c #C49B85",
":. c #C89E87",
">. c #C79E88",
",. c #C99F89",
"<. c #CDA38C",
"1. c #D2A68F",
"2. c #C7A795",
"3. c #CCA692",
"4. c #CEA892",
"5. c #C9AB9B",
"6. c #D3A790",
"7. c #D5A992",
"8. c #DAAE96",
"9. c #D8AF98",
"0. c #DFB199",
"q. c #E0B29A",
"w. c None",
/* pixels */
"w.w.w.w.w.w.w.w.w.w.w.w.w.w.w.w.w.w.w.w.w.w.w.w.w.w.w.w.w.w.w.w.w.w.w.w.w.w.w.w.w.w.w.w.w.w.w.w.w.w.",
"w.w.w.w.w.w.w.w.w.w.w.w.w.w.w.w.w.w.w.w.w.w.w.w.w.w.w.w.w.O + + o w.w.w.w.w.w.w.w.w.w.w.w.w.w.w.w.w.",
"w.w.w.w.w.w.w.w.w.w.w.w.w.w.w.w.w.w.w.w.w.w.w.w.w.w.o : a s s s s u : w.w.w.w.w.w.w.w.w.w.w.w.w.w.w.",
"w.w.w.w.w.w.w.w.w.w.w.w.w.w.w.w.w.w.w.w.w.w.w.w.w.& y s s s s s s s s u & w.w.w.w.w.w.w.w.w.w.w.w.w.",
"w.w.w.w.w.w.w.w.w.w.w.w.w.w.w.w.w.w.w.w.w.w.w.w.= a s s s s s s s s s s k : w.w.w.w.w.w.w.w.w.w.w.w.",
"w.w.w.w.w.w.w.w.w.w.w.w.w.w.w.w.w.w.w.w.w.w.w.w.r s s s s s s s s s s s k k r O w.w.w.w.w.w.w.w.w.w.",
"w.w.w.w.w.w.w.w.w.w.w.w.w.w.w.w.w.w.w.w.w.w.w.* a s s s s s s s s s s k s s k y $ X . . w.w.w.w.w.w.",
"w.w.w.w.w.w.w.w.w.w.w.w.w.w.w.w.w.w.w.w.w.w.w.: s s s s s s s s s s u u s s j 5 % X   w.w.w.w.w.w.w.",
"w.w.w.w.w.w.w.w.w.w.w.w.w.w.w.w.w.w.w.w.w.w.w.: s s s s s s s s y : - 1 f j Z ;.o.w.w.w.w.w.w.w.w.w.",
"w.w.w.w.w.w.w.w.w.w.w.w.w.w.w.w.w.w.w.w.w.w.w.> s k k s s s s s ; 8 ~ #.( B  .8.} w.w.w.w.w.w.w.w.w.",
"w.w.w.w.w.w.w.w.w.w.w.w.w.w.w.w.w.w.w.w.w.w.w.: h A C c s s s p K :.8.0.8.#.3.3.! w.w.w.w.w.w.w.w.w.",
"w.w.w.w.w.w.w.w.w.w.w.w.w.w.w.w.w.w.w.w.w.w.w.w.J :.o.S k s s v O.4.2.9.0.0.&.` w.w.w.w.w.w.w.w.w.w.",
"w.w.w.w.w.w.w.w.w.w.w.w.w.w.w.w.w.w.w.w.w.w.w.w.E 1.-.T c s s S #.*.%.2.0.9.` w w.w.w.w.w.w.w.w.w.w.",
"w.w.w.w.w.w.w.w.w.w.w.w.w.w.w.w.w.w.w.w.w.w.w.w.H -.7.R l s a T $.=.e @.3.$.q G w.w.w.w.w.w.w.w.w.w.",
"w.w.w.w.w.w.w.w.w.w.w.w.w.w.w.w.w.w.w.w.w.w.w.w.4 P +.U a l Z +.9.5.~ o.o.} o.6.[ w.w.w.w.w.w.w.w.w.",
"w.w.w.w.w.w.w.w.w.w.w.w.w.w.w.w.w.w.w.w.w.w.w.w.r l B x p Z | 1.0.0.0.<.#.;.6.0.<.w.w.w.w.w.w.w.w.w.",
"w.w.w.w.w.w.w.w.w.w.w.w.w.w.w.w.w.w.w.w.w.w.> y a s s y d _ O.:.8.q.q.8.8.0.q.q.0.w.w.w.w.w.w.w.w.w.",
"w.w.w.w.w.w.w.w.w.w.w.w.w.w.w.w.w.w.w.w.: r a s s s s p m  .$.O.6.0.q.q.q.0.q.q.<.w.w.w.w.w.w.w.w.w.",
"w.w.w.w.w.w.w.w.w.w.w.w.w.w.w.w.w.w.: t a s s s y a s s h  .8.>.O.6.0.0.q.0.0.<.' w.w.w.w.w.w.w.w.w.",
"w.w.w.w.w.w.w.w.w.w.w.w.w.w.w.w.w.> p s s s s s y y s s j Y +.6.;.#.;.;.>.-.o.~ w.w.w.w.w.w.w.w.w.w.",
"w.w.w.w.w.w.w.w.w.w.w.w.w.w.w.w.t a s s s s s s u t s s s l Z /  .$.} { { Q w.w.w.w.w.w.w.w.w.w.w.w.",
"w.w.w.w.w.w.w.w.w.w.w.w.w.w.= y s s s s s s s s u y u s s s t 6 B J ' ' w.w.w.w.w.w.w.w.w.w.w.w.w.w.",
"w.w.w.w.w.w.w.w.w.w.w.w.w.= u s s a a s s s s s s u y s s y m N j d ] Q w.w.w.w.w.w.w.w.w.w.w.w.w.w.",
"w.w.w.w.w.w.w.w.w.w.w.w.= u s s s a y s s s s s k y y s s t C P x Z O.' w.w.w.w.w.w.w.w.w.w.w.w.w.w.",
"w.w.w.w.w.w.w.w.w.w.w.= y s s s s a t s s s s s s y y k u y x _ _ X.,.] w.w.w.w.w.w.w.w.w.w.w.w.w.w.",
"w.w.w.w.w.w.w.w.w.w.O u s s s s s u y s s s s s s y u k t > 1 { 6.8.7.! w.w.w.w.w.w.w.w.w.w.w.w.w.w.",
"w.w.w.w.w.w.w.w.w.w.y s s s s s s a t s s s s s s y y u * = t / 1.0.8.L - w.w.w.w.w.w.w.w.w.w.w.w.w.",
"w.w.w.w.w.w.w.w.w.* s s s s s s s u r s s s s s u > : t t u u h X.8.6.C i w.w.w.w.w.w.w.w.w.w.w.w.w.",
"w.w.w.w.w.w.w.w.w.u s s s s s s s u t s s s u t y y u u k s k t M O./ z s : w.w.w.w.w.w.w.w.w.w.w.w.",
"w.w.w.w.w.w.w.o O s s s s s s s s a r s s s u u u s s s s s k j , 5 j k s y w.w.w.w.w.w.w.w.w.w.w.w.",
"w.w.w.w.w.w.w.@ @ s s s s s s s s a t u s s s s s s s s s s u & : y s s s s = w.w.w.w.w.w.w.w.w.w.w.",
"w.w.w.w.w.w.w.* : s s s s s s s s a y u s s s s s s s s s t & w.= a s s s s r w.w.w.w.w.w.w.w.w.w.w.",
"w.w.w.w.w.w.w.* = s s s s s s s s s t y s s s s s s s u : w.w.w.w.< s s s s a & w.w.w.w.w.w.w.w.w.w.",
"w.w.w.w.w.w.w.@ & s s s s s s s s s y > s s s s s k t @ w.w.w.w.w.w.t s s s s > w.w.w.w.w.w.w.w.w.w.",
"w.w.w.w.w.w.w.o o s s s s s s a s s a > y s s u t & w.w.w.w.w.w.w.w.= a s s s s w.w.w.w.w.w.w.w.w.w.",
"w.w.w.w.w.w.w.w.w.s s s s s s y t u t : & : * : > > & w.w.w.w.w.w.w.w.t s s s s & w.w.w.w.w.w.w.w.w.",
"w.w.w.w.w.w.w.w.w.> s s s s s s t O $ t s s s s s s r w.w.w.w.w.w.w.w.& a s s s : w.w.w.w.w.w.w.w.w.",
"w.w.w.w.w.w.w.w.w.+ s s s s s s a t w.w.t s s s s s s : w.w.w.w.w.w.w.w.t s s s t w.w.w.w.w.w.w.w.w.",
"w.w.w.w.w.w.w.w.w.w.a s s s s s s y w.w.& y s s s s s > w.w.w.w.w.w.w.w.t s s s s w.w.w.w.w.w.w.w.w.",
"w.w.w.w.w.w.w.w.w.w.: s s s s s s u & w.w.& s s s s s r w.w.w.w.w.w.w.w.g f j k a o w.w.w.w.w.w.w.w.",
"w.w.w.w.w.w.w.w.w.w.O s s s s s s u & w.w.+ k s s s s > w.w.w.w.w.w.w.} :.I R Z g # w.w.w.w.w.w.w.w.",
"w.w.w.w.w.w.w.w.w.w.w.s s s s s s u @ w.w.* s s s s s > w.w.w.w.w.w.w.o.#.6.8.7.1.w.w.w.w.w.w.w.w.w.",
"w.w.w.w.w.w.w.w.w.w.w.a s s s s s y w.w.w.< j a a a p 2 w.w.w.w.w.w.w.{ ' 6.0.0.8.w.w.w.w.w.w.w.w.w.",
"w.w.w.w.w.w.w.w.w.w.w.a s s s s s t w.w.4 N B h v m N / [ [ W w.w.w.w.w.H 6.0.0.;.w.w.w.w.w.w.w.w.w.",
"w.w.w.w.w.w.w.w.w.w.# s s s s s j d w.w.~ ,.,.O.:.:.<.8.<.O...' F w.w.w.w.;.7.<.F w.w.w.w.w.w.w.w.w.",
"w.w.w.w.w.w.w.w.w.w.0 B V b l V T ( W q D H { ,.6.<.....<.<.,...W w.w.w.w.| 7.O.3 w.w.w.w.w.w.w.w.w.",
"w.w.w.w.w.w.w.w.w.w.;.<.$...' -.8.7.:...} ) w.w.w.w.w.w.w.w.w.w.w.w.w.w.w.{ <.} w.w.w.w.w.w.w.w.w.w.",
"w.w.w.w.w.w.w.w.w.w.w.>.<.1.9.8.<.,.;.:.O.! w.w.w.w.w.w.w.w.w.w.w.w.w.w.w.w...w.w.w.w.w.w.w.w.w.w.w.",
"w.w.w.w.w.w.w.w.w.w.w.w.w.{ o.;.#.| ..o.~ H w.w.w.w.w.w.w.w.w.w.w.w.w.w.w.w.w.w.w.w.w.w.w.w.w.w.w.w.",
"w.w.w.w.w.w.w.w.w.w.w.w.w.w.w.w.7 0 9 7 w.w.w.w.w.w.w.w.w.w.w.w.w.w.w.w.w.w.w.w.w.w.w.w.w.w.w.w.w.w."
};
