/* XPM */
static char *_647296107096[] = {
/* columns rows colors chars-per-pixel */
"50 50 176 2 ",
"   c #2F3027",
".  c #54241D",
"X  c #5B251D",
"o  c #61271F",
"O  c #62281F",
"+  c #462A27",
"@  c #4A2B25",
"#  c #4B2D29",
"$  c #532620",
"%  c #592721",
"&  c #532C25",
"*  c #5B2A22",
"=  c #592E28",
"-  c #4A332E",
";  c #53332C",
":  c #5C332B",
">  c #4E3F3A",
",  c #533632",
"<  c #5A3731",
"1  c #563A35",
"2  c #5A3B36",
"3  c #543D39",
"4  c #5B3F3A",
"5  c #642B22",
"6  c #6C2E24",
"7  c #673127",
"8  c #6C3026",
"9  c #62342C",
"0  c #69332A",
"q  c #6F382D",
"w  c #733227",
"e  c #743529",
"r  c #7A372B",
"t  c #7C3A2D",
"y  c #753B2E",
"u  c #623D34",
"i  c #6C3D34",
"p  c #743E33",
"a  c #7B3D31",
"s  c #4C443F",
"d  c #56413D",
"f  c #5A443A",
"g  c #6B4337",
"h  c #63443D",
"j  c #6E473B",
"k  c #7D4336",
"l  c #724439",
"z  c #7B4539",
"x  c #7C4C3F",
"c  c #544542",
"v  c #5A4642",
"b  c #564A48",
"n  c #5A4D4A",
"m  c #5D5250",
"M  c #644641",
"N  c #6C4747",
"B  c #624944",
"V  c #6E4A42",
"C  c #634F4A",
"Z  c #684E49",
"A  c #714C43",
"S  c #645147",
"D  c #6C534D",
"F  c #69594D",
"G  c #775249",
"H  c #7C5345",
"J  c #6B5B54",
"K  c #605B58",
"L  c #735053",
"P  c #5B6457",
"I  c #6F605C",
"U  c #7C6556",
"Y  c #7E6A5C",
"T  c #71635A",
"R  c #6E6865",
"E  c #696564",
"W  c #7F6F66",
"Q  c #7E746D",
"!  c #813C2F",
"~  c #843E30",
"^  c #854133",
"/  c #8D4535",
"(  c #824C3D",
")  c #8A4A3A",
"_  c #825647",
"`  c #8C5343",
"'  c #845E4F",
"]  c #8C5948",
"[  c #975746",
"{  c #945D4C",
"}  c #9A5D4B",
"|  c #875F51",
" . c #95614F",
".. c #9D624F",
"X. c #8B6353",
"o. c #836B5B",
"O. c #8A6A59",
"+. c #926453",
"@. c #9F6350",
"#. c #946856",
"$. c #946B59",
"%. c #9D6F5C",
"&. c #9E715E",
"*. c #A26E5A",
"=. c #847165",
"-. c #8B7364",
";. c #957766",
":. c #937866",
">. c #9B7965",
",. c #91776A",
"<. c #967C6C",
"1. c #997B69",
"2. c #867B74",
"3. c #937E72",
"4. c #A37562",
"5. c #A67B67",
"6. c #A87B66",
"7. c #AC7877",
"8. c #958275",
"9. c #9D8474",
"0. c #AC836D",
"q. c #A48472",
"w. c #AD8571",
"e. c #A68A79",
"r. c #AD8D7B",
"t. c #AD8973",
"y. c #B48772",
"u. c #B28C75",
"i. c #BC8C75",
"p. c #B28E7A",
"a. c #B98F78",
"s. c #B5927D",
"d. c #BC947C",
"f. c #BE987F",
"g. c #C29279",
"h. c #918780",
"j. c #A48F80",
"k. c #AE9585",
"l. c #B39886",
"z. c #BD9A84",
"x. c #B99682",
"c. c #B9ABA2",
"v. c #BDB9B6",
"b. c #C49B82",
"n. c #CA9D84",
"m. c #CC8E91",
"M. c #D59B94",
"N. c #CDA186",
"B. c #CEA489",
"V. c #D3A58B",
"C. c #D8A78C",
"Z. c #D5A98D",
"A. c #D9AB8F",
"S. c #C7A894",
"D. c #DCAD92",
"F. c #D1AA90",
"G. c #DEB194",
"H. c #E0AF91",
"J. c #E2B295",
"K. c #E8B597",
"L. c #EBB699",
"P. c #ECB99A",
"I. c #F1BE9E",
"U. c #CFBAAB",
"Y. c #DABBA6",
"T. c #F6BFA0",
"R. c #F4C09F",
"E. c #C6C2BF",
"W. c #DCCBBF",
"Q. c #F6C1A1",
"!. c #FCC5A4",
"~. c #FFC8A6",
"^. c #E8C7B2",
"/. c #ECC8B2",
"(. c #C6C2C0",
"). c None",
/* pixels */
").).).).).).).).).).).).).).).).).).).).).).).).).).).).).).).).).).).).).).).).).).).).).).).).).).",
").).).).).).).).).).).).).).).).).).).).).).).).).).).).).).).).).).).).).).).).).).).).).).).).).).",
").).).).).).).).).).).).).).).).).).).).).).).).).).).).).).).).).).).).).).).).).).).).).).).).).).",
").).).).).).).).).).).).).).).).).).).).).).).).).).).).).).).).).).).).).).).).).).).).).).).).).).",
").).).).).).).).).).).).).).).).).).).).).).).).).).).).).).).).).).).).).).).).).).).).).).).).).).",
").).).).).).).).).).).).).).).).).).).).).).).).).).).).).).).).).).).).).).).).).).).).).).).).).).",
").).).).).).).).).).).).).).).).).).).h l z i i z x V ).).).).).).).).).).).).).).).).).).).).).).).",
").).).).).).).).).).).).).).).).V l ^ ^ ^ ] #.#.x y / a 4 ).).).).).).).).).).).).).).).).).).).).).",
").).).).).).).).).).).).f ; i g x ` [ *.N.R.!.!.P.0.k / t 1 ).).).).).).).).).).).).).).).).).).).).",
").).).).).).).).).).).).f < X.H.P.P.P.Q.!.!.R.G.G.Q.0.^ / 6 b ).).).).).).).).).).).).).).).).).).).",
").).).).).).).).).).).).).s N.P.G.R.!.!.!.!.S.v.E.Y.J._ / e , ).).).).).).).).).).).).).).).).).).).",
").).).).).).).).).).).).).m p.c.E.U.R.P.G.K.^.2.R ^.!.4.^ t < 2.).).).).).).).).).).).).).).).).).).",
").).).).).).).).).).).).).Q r.W.E 8.F.N.a.N.Q.G.N.Q.!.L.6.a j d.d.9.).).).).).).).).).).).).).).).).",
").).).).).).).).).).).).q.s.p.!.d.N.R.R.R.!.!.!.!.Q.A.P.L.{ 7 b.L.s.).).).).).).).).).).).).).).).).",
").).).).).).).).).).).).e.r.G.P.~.~.Q.!.!.!.~.!.P.0.O.A.P.+.: t.r.).).).).).).).).).).).).).).).).).",
").).).).).).).).).).).).).=.V.>.u.G.P.P.P.A.u.$.g ' L.T.n.h v ).).).).).).).).).).).).).).).).).).).",
").).).).).).).).).).).).).).q.b.X.u g h Z B L N $.P.P.w.Z ).).).).).).).).).).).).).).).).).).).).).",
").).).).).).).).).).).).).).).3.z.q.| 7.m.m.M.D.K.i.H $ @ 1 ).).).).).).).).).).).).).).).).).).).).",
").).).).).).).).).).).).).).).).).x $.0.0.u.y.*.l % X 5 w e 0 9 1 ).).).k.j.).).).).).).).).).).).).",
").).).).).).).).).9.l.).).z.=.u k ! 6 O * X X X X 5 6 r / / / ~ t e 9 1.P.e.).).).).).).).).).).).).",
").).).).).).).k.l.F B.9.J D.{ ~ / / ^ r 8 O O 6 6 e ! / a ^ / / / / { P.g.9 < ).).).).).).).).).).).",
").).).).).).).8.B.J O.s._ D.{ ~ t k ^ / / / ~ ^ / / / / e 7 ! ) [ ` B.Z.+...q & ).).).).).).).).).).",
").).).).).).s.1.S d.0.J.H.I.{ 0 %.0.x / / / / / / / / / w - B y.A.C.B.B.Z.P.5.x < ).).).).).).).).).",
").).).).).).).z.t.Z.R.D.K.Q.C.g.g.] / / / / / / / / / ^ e ; P N.Z.B.B.f.K.Z.J.>.1 ).).).).).).).).).",
").).).).).).).J 5.Q.I.Q.!.!.~.H.g ~ / / / / / / / / / / ~ *   1.P.C.u.u.x.N.B.1.c ).).).).).).).).).",
").).).).).).).C z g.I.!.I.C.t.Y @ / / / / / / / / / / / / 6 # ).k.b.C.n.w.>.3.).).).).).).).).).).).",
").).).).).).).).i q _ 4.#.h b ).* / / / / [ / / / / / / / e % c ).).3.s.r.).).).).).).).).).).).).).",
").).).).).).).).).M 2 4 ).).).).: / / / / / / / / / / / / t 6 & ).).).).).).).).).).).).).).).).).).",
").).).).).).).).).).).).).).).).h / / / / [ / / / / / / / ^ e X d ).).).).).).).).).).).).).).).).).",
").).).).).).).).).).).).).).).).S ^ / / / / / / / / / / / / ! 6 % ).).).).).).).).).).).).).).).).).",
").).).).).).).).).).).).).).).).A ^ / / / / / / / / / / / / ^ r X # ).).).).).).).).).).).).).).).).",
").).).).).).).).).).).).).).).A / / / / / / ) / / / / / / / / ! 8 * n ).).).).).).).).).).).).).).).",
").).).).).).).).).).).).).).G / / / / / / / / / / / / / / / / / ^ 6 : ).).).).).).).).).).).).).).).",
").).).).).).).).).).).).).D ^ / / / / / / / ^ ^ / / / / / / / / / ! 5 3 ).).).).).).).).).).).).).).",
").).).).).).).).).).).).).x ) / / / ~ ! e 5 * 6 6 6 r ~ / / / / / ~ w : ).).).).).).).).).).).).).).",
").).).).).).).).).).).).Z ^ / / / ~ ! 5 . , ).).).n 4 9 t / / / / / r * m ).).).).).).).).).).).).).",
").).).).).).).).).).).).; / / / / ~ 6 . v ).).).).).).).< ! / / / / r 5 c ).).).).).).).).).).).).).",
").).).).).).).).).).).).1 ^ / / / ! 5 @ ).).).).).).).).).0 / / / / e o 3 ).).).).).).).).).).).).).",
").).).).).).).).).).).).I ^ ) / / ! 5 + ).).).).).).).).).< ~ / / ~ w 5 d ).).).).).).).).).).).).).",
").).).).).).).).).).).).).z / / / ! o @ ).).).).).).).).).Z t / / t 6 % c ).).).).).).).).).).).).).",
").).).).).).).).).).).).).).k / ~ ~ 6 . ).).).).).).).).).h ^ / ^ r 5 & ).).).).).).).).).).).).).).",
").).).).).).).).).).).).).).X...*.[ a * ; ).).).).).).).).B y / ) { +.| W ).).).).).).).).).).).).).",
").).).).).).).).).).).T -.b.D.J.J.P.V.s.b.J ).).).).).1.d.B.i.g.G.A.K.Z.b.U ).).).).).).).).).).).).",
").).).).).).).).).).).-.A.Z.D.B.J.V.0.V.1.).).).).).).s.r.-.f.J.I.J.n.H.z.0.s ).).).).).).).).).).).",
").).).).).).).).).).).).Y Y Y -.-.).).).).).).).).).).).).).).).o.1.9.r.,.).).).).).).).).).).).).).",
").).).).).).).).).).).).).).).).).).).).).).).).).).).).).).).).).).).).).).).).).).).).).).).).).).",
").).).).).).).).).).).).).).).).).).).).).).).).).).).).).).).).).).).).).).).).).).).).).).).).).).",
").).).).).).).).).).).).).).).).).).).).).).).).).).).).).).).).).).).).).).).).).).).).).).).).).).",
").).).).).).).).).).).).).).).).).).).).).).).).).).).).).).).).).).).).).).).).).).).).).).).).).).",
").).).).).).).).).).).).).).).).).).).).).).).).).).).).).).).).).).).).).).).).).).).).).).).).).)."
};
