/* XPM */
static char *result[] = {
/* columns rows colors chars-per-pixel */
"50 50 136 2 ",
"   c #2C1A15",
".  c #3C211A",
"X  c #420C0E",
"o  c #45261E",
"O  c #4C271E",
"+  c #50291F",
"@  c #5B2C1F",
"#  c #4B2821",
"$  c #572C21",
"%  c #5C2E21",
"&  c #5E3024",
"*  c #622F24",
"=  c #653326",
"-  c #6B3525",
";  c #6D3628",
":  c #743626",
">  c #743927",
",  c #7D3927",
"<  c #733A29",
"1  c #7B3D2B",
"2  c #763F33",
"3  c #7D412D",
"4  c #744234",
"5  c #7F4432",
"6  c #7A4D3F",
"7  c #655443",
"8  c #7F5745",
"9  c #7D5949",
"0  c #796755",
"q  c #823E2B",
"w  c #85412C",
"e  c #8B432D",
"r  c #93462E",
"t  c #9B472F",
"y  c #96482F",
"u  c #9C492F",
"i  c #844532",
"p  c #8E4531",
"a  c #874A34",
"s  c #8D4A34",
"d  c #8A4F38",
"f  c #944630",
"g  c #9B4730",
"h  c #944B34",
"j  c #9D4A31",
"k  c #83533E",
"l  c #90503A",
"z  c #9B543B",
"x  c #A24A2F",
"c  c #A24B30",
"v  c #845341",
"b  c #8A5744",
"n  c #935441",
"m  c #9A5B43",
"M  c #8A614E",
"N  c #91664F",
"B  c #9D624B",
"V  c #8F6753",
"C  c #896F5A",
"Z  c #926752",
"A  c #946952",
"S  c #9A6A52",
"D  c #936F59",
"F  c #8D745E",
"G  c #94745F",
"H  c #A6664B",
"J  c #A46C53",
"K  c #A57157",
"L  c #A37158",
"P  c #A9765D",
"I  c #9E7E66",
"U  c #9F786E",
"Y  c #A36768",
"T  c #A37D65",
"R  c #A97D66",
"E  c #AE7E6E",
"W  c #9F8267",
"Q  c #9D866C",
"!  c #9B8977",
"~  c #A18067",
"^  c #A4856C",
"/  c #A58A6E",
"(  c #AE8F6F",
")  c #B58B6E",
"_  c #BA896E",
"`  c #AD8D71",
"'  c #B18D72",
"]  c #BB8E72",
"[  c #B78379",
"{  c #B29075",
"}  c #BB9274",
"|  c #B49279",
" . c #BB9679",
".. c #B79C79",
"X. c #BD9A7D",
"o. c #C1957A",
"O. c #C2987D",
"+. c #C3A27C",
"@. c #B09581",
"#. c #BB9880",
"$. c #B59D8A",
"%. c #B89F8C",
"&. c #ABA09F",
"*. c #AEA7A4",
"=. c #BBAEA2",
"-. c #BCBAB5",
";. c #C39E82",
":. c #C89F82",
">. c #C7A385",
",. c #CBA484",
"<. c #CEA98B",
"1. c #D5A986",
"2. c #D2A689",
"3. c #D3AB8C",
"4. c #D9AD8D",
"5. c #DBB18F",
"6. c #CCAD94",
"7. c #C4AD9B",
"8. c #D4AD91",
"9. c #DCB293",
"0. c #DDB599",
"q. c #E0B595",
"w. c #E4BA97",
"e. c #E0B699",
"r. c #E5BA9B",
"t. c #E9BE9F",
"y. c #C7B2A3",
"u. c #D7B8A2",
"i. c #E9BFA0",
"p. c #CCCBC9",
"a. c LightGray",
"s. c #DCD8D2",
"d. c #D6D7D8",
"f. c gray87",
"g. c gray91",
"h. c None",
/* pixels */
"h.h.h.h.h.h.h.h.h.h.h.h.h.h.h.h.h.h.h.; 1 q q > @ h.h.h.h.h.h.h.h.h.h.h.h.h.h.h.h.h.h.h.h.h.h.h.h.h.",
"h.h.h.h.h.h.h.h.h.h.h.h.h.4 i h.1 e c c c x x x x j -   h.h.h.h.h.h.h.h.h.h.h.h.h.h.h.h.h.h.h.h.h.h.",
"h.h.h.h.h.h.h.h.h.h.h.h.h.4 2 p f j c x x x x x x x x e   h.h.h.h.h.h.h.h.h.h.h.h.h.h.h.h.h.h.h.h.h.",
"h.h.h.h.h.h.h.h.h.h.h.h.h.h.^ 3.v f x x x x x x x x x x w h.h.h.h.h.h.h.h.h.h.h.h.h.h.h.h.h.h.h.h.h.",
"h.h.h.h.h.h.h.h.h.h.h.h.h.h.4.i.;.w x x x x x x x x x x c - h.h.h.h.h.h.h.h.h.h.h.h.h.h.h.h.h.h.h.h.",
"h.h.h.h.h.h.h.h.h.h.h.h.h.h.9.i.t.v c x x x x x x x x x x e h.h.h.h.h.h.h.h.h.h.h.h.h.h.h.h.h.h.h.h.",
"h.h.h.h.h.h.h.h.h.h.h.h.h.h.<.$.t.R x x x x x x x x x x x c O h.h.h.h.h.h.h.h.h.h.h.h.h.h.h.h.h.h.h.",
"h.h.h.h.h.h.h.h.h.h.h.h.h.h.6.s.6.] c x x x x x x x x x x c @ h.h.h.h.h.h.h.h.h.h.h.h.h.h.h.h.h.h.h.",
"h.h.h.h.h.h.h.h.h.h.h.h.h.h.~ -.0.>.j x x x u , q x x x x x % h.h.h.h.h.h.h.h.h.h.h.h.h.h.h.h.h.h.h.",
"h.h.h.h.h.h.h.h.h.h.h.h.4.5.9.=.0.3.u c x u V | ( 4 x x x j h.h.h.h.h.h.h.h.h.h.h.h.h.h.h.h.h.h.h.h.",
"h.h.h.h.h.h.h.h.h.h.h.8.t.t.t.r.i.0.s c x z ~ >.9.T c c x e h.h.h.h.h.h.h.h.h.h.h.h.h.h.h.h.h.h.h.h.",
"h.h.h.h.h.h.h.h.h.h.' i.t.t.i.e.r.i.L c c k >.i.t.T c c u h.h.h.h.h.h.h.h.h.h.h.h.h.h.h.h.h.h.h.h.h.",
"h.h.h.h.h.h.h.h.h.h.>.i.t.t.i.e.9 4.O.g x i 9.i.3.a c u % h.h.h.h.h.h.h.h.h.h.h.h.h.h.h.h.h.h.h.h.h.",
"h.h.h.h.h.h.h.h.h.h.| t.t.i.r.G . 3.r.q x f V J s c e h.h.h.h.h.h.h.h.h.h.h.h.h.h.h.h.h.h.h.h.h.h.h.",
"h.h.h.h.h.h.h.h.h.h.h.X. .^ h.Y E i.i.1 c x u x x e h.h.h.h.h.h.h.h.h.h.h.h.h.h.h.h.h.h.h.h.h.h.h.h.",
"h.h.h.h.h.h.h.h.h.h.h.h.h.h.h.[ e.r.0.i p x x x x e ; h.h.h.h.h.h.h.h.h.h.h.h.h.h.h.h.h.h.h.h.h.h.h.",
"h.h.h.h.h.h.h.h.h.h.h.h.h.^ X.0.i.t.T 1 c x x x x x x y < h.h.h.h.h.h.h.h.h.h.h.h.h.h.h.h.h.h.h.h.h.",
"h.h.h.h.h.h.h.h.h.h.h.h.h.<.7.6.7.y.8 1 x x x x x x x x j e h.h.h.h.h.h.h.h.h.h.h.h.h.h.h.h.h.h.h.h.",
"h.h.h.h.h.h.h.h.h.h.h.h.` %.f.a.g.&., u x x x x x x x x x x u - h.h.h.h.h.h.h.h.h.h.h.h.h.h.h.h.h.h.",
"h.h.h.h.h.h.h.h.h.h.h.h.| %.d.g.p.U q c x x x x j x x x x x x c 1 h.h.h.h.h.h.h.h.h.h.h.h.h.h.h.h.h.",
"h.h.h.h.h.h.h.h.h.h.h.h./ @.=.y.p.h e x x x x c e j x x x x x c x w h.h.h.h.h.h.h.h.h.h.h.h.h.h.h.h.",
"h.h.h.h.h.h.h.h.h.h.h.h.h. .0.:.X.h q c x x x x c e u x x x x x x x w h.h.h.h.h.h.h.h.h.h.h.h.h.h.h.",
"h.h.h.h.h.h.h.h.h.h.h.h.h.9.t.w.8.v w c x x x x x x q r x c x x x x c e h.h.h.h.h.h.h.h.h.h.h.h.h.h.",
"h.h.h.h.h.h.h.h.h.h.h.h.h.w.i.3.,.Z 1 c x x x x x x x q e x x x x x x c 1 h.h.h.h.h.h.h.h.h.h.h.h.h.",
"h.h.h.h.h.h.h.h.h.h.h.h.h.O.t.i.5.P 1 c x x x x x x x x g w g c x x x x c : h.h.h.h.h.h.h.h.h.h.h.h.",
"h.h.h.h.h.h.h.h.h.h.h.h.h.d X.<.G z > j x x x x x x x x x u q g x x x x x j % h.h.h.h.h.h.h.h.h.h.h.",
"h.h.h.h.h.h.h.h.h.h.h.h.h.g u p r , : r x x x x x x x x x x c > j c x x x x y h.h.h.h.h.h.h.h.h.h.h.",
"h.h.h.h.h.h.h.h.h.h.h.h.h.e x x x u < - x x x x x x x x x x c j 1 t x x x x x - h.h.h.h.h.h.h.h.h.h.",
"h.h.h.h.h.h.h.h.h.h.h.h.h.w x x x x u @ x x x x x x x x x x x c 1 c c x x x c 1 h.h.h.h.h.h.h.h.h.h.",
"h.h.h.h.h.h.h.h.h.h.h.h.h.h.j c x x x 1 r x x x x x x x x x x p j x c x x x x : h.h.h.h.h.h.h.h.h.h.",
"h.h.h.h.h.h.h.h.h.h.h.h.h.h.> c x x x e > x x x x x x x x j e u x x x x x x u h.h.h.h.h.h.h.h.h.h.h.",
"h.h.h.h.h.h.h.h.h.h.h.h.h.h.h.w x x x e . g x x x x x c j v h x x x x x x u = h.h.h.h.h.h.h.h.h.h.h.",
"h.h.h.h.h.h.h.h.h.h.h.h.h.h.h.h., u g = h.- x x x x x m ) 4.m c x x x x g = h.h.h.h.h.h.h.h.h.h.h.h.",
"h.h.h.h.h.h.h.h.h.h.h.h.h.h.h.h.h.h.h.h.h.h.r c x x h ~ 2.t.O.p x x g < h.h.h.h.h.h.h.h.h.h.h.h.h.h.",
"h.h.h.h.h.h.h.h.h.h.h.h.h.h.h.h.h.h.h.h.h.h.% j x x j o.,.r.i._ L e g g h.h.h.h.h.h.h.h.h.h.h.h.h.h.",
"h.h.h.h.h.h.h.h.h.h.h.h.h.h.h.h.h.h.h.h.h.h.# < x x H 3.+.,.q.t.~ j c j ; h.h.h.h.h.h.h.h.h.h.h.h.h.",
"h.h.h.h.h.h.h.h.h.h.h.h.h.h.h.h.h.h.h.h.h.h.f e < c m Z ^ ,.q.S g x x x q h.h.h.h.h.h.h.h.h.h.h.h.h.",
"h.h.h.h.h.h.h.h.h.h.h.h.h.h.h.h.h.h.h.h.h.< x x y < c j I | ~ c x x x x 1 h.h.h.h.h.h.h.h.h.h.h.h.h.",
"h.h.h.h.h.h.h.h.h.h.h.h.h.h.h.h.h.h.h.h.+ c c x c j w u w b h x x x x c % h.h.h.h.h.h.h.h.h.h.h.h.h.",
"h.h.h.h.h.h.h.h.h.h.h.h.h.h.h.h.h.h.h.h.q c x x x c u 3 u x x x x x x r h.h.h.h.h.h.h.h.h.h.h.h.h.h.",
"h.h.h.h.h.h.h.h.h.h.h.h.h.h.h.h.h.h.h.h.j c x x x x r r x x x x x x c = h.h.h.h.h.h.h.h.h.h.h.h.h.h.",
"h.h.h.h.h.h.h.h.h.h.h.h.h.h.h.h.h.h.h.h.j x x x x c e u x x x x x x r h.h.h.h.h.h.h.h.h.h.h.h.h.h.h.",
"h.h.h.h.h.h.h.h.h.h.h.h.h.h.h.h.h.h.h.h.e x x x x x , u x x x x x c < h.h.h.h.h.h.h.h.h.h.h.h.h.h.h.",
"h.h.h.h.h.h.h.h.h.h.h.h.h.h.h.h.h.h.h.h.1 c x x x x q u x x x x x c o h.h.h.h.h.h.h.h.h.h.h.h.h.h.h.",
"h.h.h.h.h.h.h.h.h.h.h.h.h.h.h.h.h.h.h.h.h.r c c x c n b c c x x x c o h.h.h.h.h.h.h.h.h.h.h.h.h.h.h.",
"h.h.h.h.h.h.h.h.h.h.h.h.h.h.h.h.Q ..+.4.t.r.3._ m v 9 *.h x x x x c q h.h.h.h.h.h.h.h.h.h.h.h.h.h.h.",
"h.h.h.h.h.h.h.h.h.h.h.h.h.h.h.h.^ X.>.3.9.3.<.1.w.i.8.! M g x x c j j 1 h.h.h.h.h.h.h.h.h.h.h.h.h.h.",
"h.h.h.h.h.h.h.h.h.h.h.h.h.h.h.h.h.h.h.h.h.7 { { F ^ ` { ,.] d j w g g i h.h.h.h.h.h.h.h.h.h.h.h.h.h.",
"h.h.h.h.h.h.h.h.h.h.h.h.h.h.h.h.h.h.h.h.h.h.h.h.Q ` 3.>.:.9.9.] S Z ' } 0 h.h.h.h.h.h.h.h.h.h.h.h.h.",
"h.h.h.h.h.h.h.h.h.h.h.h.h.h.h.h.h.h.h.h.h.h.h.h.h.I C { #.#.#.| ~ F h.h.h.h.h.h.h.h.h.h.h.h.h.h.h.h."
};
