/* XPM */
static char *result[] = {
/* columns rows colors chars-per-pixel */
"50 50 136 2 ",
"   c #2C1A15",
".  c #3C211A",
"X  c #420C0E",
"o  c #45261E",
"O  c #4C271E",
"+  c #50291F",
"@  c #5B2C1F",
"#  c #4B2821",
"$  c #572C21",
"%  c #5C2E21",
"&  c #5E3024",
"*  c #622F24",
"=  c #653326",
"-  c #6B3525",
";  c #6D3628",
":  c #743626",
">  c #743927",
",  c #7D3927",
"<  c #733A29",
"1  c #7B3D2B",
"2  c #763F33",
"3  c #7D412D",
"4  c #744234",
"5  c #7F4432",
"6  c #7A4D3F",
"7  c #655443",
"8  c #7F5745",
"9  c #7D5949",
"0  c #796755",
"q  c #823E2B",
"w  c #85412C",
"e  c #8B432D",
"r  c #93462E",
"t  c #9B472F",
"y  c #96482F",
"u  c #9C492F",
"i  c #844532",
"p  c #8E4531",
"a  c #874A34",
"s  c #8D4A34",
"d  c #8A4F38",
"f  c #944630",
"g  c #9B4730",
"h  c #944B34",
"j  c #9D4A31",
"k  c #83533E",
"l  c #90503A",
"z  c #9B543B",
"x  c #A24A2F",
"c  c #A24B30",
"v  c #845341",
"b  c #8A5744",
"n  c #935441",
"m  c #9A5B43",
"M  c #8A614E",
"N  c #91664F",
"B  c #9D624B",
"V  c #8F6753",
"C  c #896F5A",
"Z  c #926752",
"A  c #946952",
"S  c #9A6A52",
"D  c #936F59",
"F  c #8D745E",
"G  c #94745F",
"H  c #A6664B",
"J  c #A46C53",
"K  c #A57157",
"L  c #A37158",
"P  c #A9765D",
"I  c #9E7E66",
"U  c #9F786E",
"Y  c #A36768",
"T  c #A37D65",
"R  c #A97D66",
"E  c #AE7E6E",
"W  c #9F8267",
"Q  c #9D866C",
"!  c #9B8977",
"~  c #A18067",
"^  c #A4856C",
"/  c #A58A6E",
"(  c #AE8F6F",
")  c #B58B6E",
"_  c #BA896E",
"`  c #AD8D71",
"'  c #B18D72",
"]  c #BB8E72",
"[  c #B78379",
"{  c #B29075",
"}  c #BB9274",
"|  c #B49279",
" . c #BB9679",
".. c #B79C79",
"X. c #BD9A7D",
"o. c #C1957A",
"O. c #C2987D",
"+. c #C3A27C",
"@. c #B09581",
"#. c #BB9880",
"$. c #B59D8A",
"%. c #B89F8C",
"&. c #ABA09F",
"*. c #AEA7A4",
"=. c #BBAEA2",
"-. c #BCBAB5",
";. c #C39E82",
":. c #C89F82",
">. c #C7A385",
",. c #CBA484",
"<. c #CEA98B",
"1. c #D5A986",
"2. c #D2A689",
"3. c #D3AB8C",
"4. c #D9AD8D",
"5. c #DBB18F",
"6. c #CCAD94",
"7. c #C4AD9B",
"8. c #D4AD91",
"9. c #DCB293",
"0. c #DDB599",
"q. c #E0B595",
"w. c #E4BA97",
"e. c #E0B699",
"r. c #E5BA9B",
"t. c #E9BE9F",
"y. c #C7B2A3",
"u. c #D7B8A2",
"i. c #E9BFA0",
"p. c #CCCBC9",
"a. c LightGray",
"s. c #DCD8D2",
"d. c #D6D7D8",
"f. c gray87",
"g. c gray91",
"h. c None",
/* pixels */
"h.h.h.h.h.h.h.h.h.h.h.h.h.h.h.h.h.h.h.h.h.h.h.h.h.$ > q q , ; h.h.h.h.h.h.h.h.h.h.h.h.h.h.h.h.h.h.h.",
"h.h.h.h.h.h.h.h.h.h.h.h.h.h.h.h.h.h.h.h.h.h.  - j x c x x x x x e 1 h.i 4 h.h.h.h.h.h.h.h.h.h.h.h.h.",
"h.h.h.h.h.h.h.h.h.h.h.h.h.h.h.h.h.h.h.h.h.  e c x x x x x x x c j y p 2 2 h.h.h.h.h.h.h.h.h.h.h.h.h.",
"h.h.h.h.h.h.h.h.h.h.h.h.h.h.h.h.h.h.h.h.h.w x x x x x x x x x x p v 3.^ h.h.h.h.h.h.h.h.h.h.h.h.h.h.",
"h.h.h.h.h.h.h.h.h.h.h.h.h.h.h.h.h.h.h.h.- c x x x x x x x x x x q ;.t.4.h.h.h.h.h.h.h.h.h.h.h.h.h.h.",
"h.h.h.h.h.h.h.h.h.h.h.h.h.h.h.h.h.h.h.h.e x x x x x x x x x x c b t.t.5.h.h.h.h.h.h.h.h.h.h.h.h.h.h.",
"h.h.h.h.h.h.h.h.h.h.h.h.h.h.h.h.h.h.h.O j x x x x x x x x x x x R t.$.2.h.h.h.h.h.h.h.h.h.h.h.h.h.h.",
"h.h.h.h.h.h.h.h.h.h.h.h.h.h.h.h.h.h.h.@ x x x x x c x x x x c c } 6.s.6.h.h.h.h.h.h.h.h.h.h.h.h.h.h.",
"h.h.h.h.h.h.h.h.h.h.h.h.h.h.h.h.h.h.h.% x x x c x w , u x x x j ;.u.-.I h.h.h.h.h.h.h.h.h.h.h.h.h.h.",
"h.h.h.h.h.h.h.h.h.h.h.h.h.h.h.h.h.h.h.h.j x x c 4 ( ..A u x x u <.0.=.9.9.4.h.h.h.h.h.h.h.h.h.h.h.h.",
"h.h.h.h.h.h.h.h.h.h.h.h.h.h.h.h.h.h.h.h.e x x c ~ 5.>.~ m x x s r.t.r.t.i.i.8.h.h.h.h.h.h.h.h.h.h.h.",
"h.h.h.h.h.h.h.h.h.h.h.h.h.h.h.h.h.h.h.h.h.u x c T i.i.;.k x x K i.r.0.i.i.t.i.' h.h.h.h.h.h.h.h.h.h.",
"h.h.h.h.h.h.h.h.h.h.h.h.h.h.h.h.h.h.h.h.h.& u c a 2.t.9.i x j O.5.9 0.t.t.i.i.>.h.h.h.h.h.h.h.h.h.h.",
"h.h.h.h.h.h.h.h.h.h.h.h.h.h.h.h.h.h.h.h.h.h.h.e c s J V r x 1 r.5.X G r.t.i.i.| h.h.h.h.h.h.h.h.h.h.",
"h.h.h.h.h.h.h.h.h.h.h.h.h.h.h.h.h.h.h.h.h.h.h.h.e x x c j c 3 i.t.E Y h.^  .#.h.h.h.h.h.h.h.h.h.h.h.",
"h.h.h.h.h.h.h.h.h.h.h.h.h.h.h.h.h.h.h.h.h.h.h.; w x c c c p q 0.t.r.[ h.h.h.h.h.h.h.h.h.h.h.h.h.h.h.",
"h.h.h.h.h.h.h.h.h.h.h.h.h.h.h.h.h.h.h.h.h.< g x x x x x x c 3 T t.t.q.#.^ h.h.h.h.h.h.h.h.h.h.h.h.h.",
"h.h.h.h.h.h.h.h.h.h.h.h.h.h.h.h.h.h.h.h.e x x x x x x x x x 1 6 =.7.6.7.<.h.h.h.h.h.h.h.h.h.h.h.h.h.",
"h.h.h.h.h.h.h.h.h.h.h.h.h.h.h.h.h.h.; u x x x x x x x x x x u q &.g.a.f.%.` h.h.h.h.h.h.h.h.h.h.h.h.",
"h.h.h.h.h.h.h.h.h.h.h.h.h.h.h.h.h.3 x x x x x x x j c x x x c w U p.g.d.%.| h.h.h.h.h.h.h.h.h.h.h.h.",
"h.h.h.h.h.h.h.h.h.h.h.h.h.h.h.h.w x x x x x x x c e x x x x x w l p.y.=.@./ h.h.h.h.h.h.h.h.h.h.h.h.",
"h.h.h.h.h.h.h.h.h.h.h.h.h.h.h.w x x x x x x x u w c x x x x x w h X.:.q. .h.h.h.h.h.h.h.h.h.h.h.h.h.",
"h.h.h.h.h.h.h.h.h.h.h.h.h.h.w c x x x x c x r q c x x x x x x 3 v 4.w.t.9.h.h.h.h.h.h.h.h.h.h.h.h.h.",
"h.h.h.h.h.h.h.h.h.h.h.h.h.1 x x x x x x x w q x x x x x x x x 3 Z >.4.t.r.h.h.h.h.h.h.h.h.h.h.h.h.h.",
"h.h.h.h.h.h.h.h.h.h.h.h.: c x x x x x u w g x x x x x x x x c 1 P 9.t.i.O.h.h.h.h.h.h.h.h.h.h.h.h.h.",
"h.h.h.h.h.h.h.h.h.h.h.% j c x x x x j w j x x x x x x x x x c > z D 3. .d h.h.h.h.h.h.h.h.h.h.h.h.h.",
"h.h.h.h.h.h.h.h.h.h.h.u c x x x x j < x u x x x x x x x x x r : 1 r f u g h.h.h.h.h.h.h.h.h.h.h.h.h.",
"h.h.h.h.h.h.h.h.h.h.- x x x x x u 1 j x x x x x x x x x x x - < u x x x e h.h.h.h.h.h.h.h.h.h.h.h.h.",
"h.h.h.h.h.h.h.h.h.h.1 c x x x x c 1 c c x x x x x x x x x x @ u x x x x 3 h.h.h.h.h.h.h.h.h.h.h.h.h.",
"h.h.h.h.h.h.h.h.h.h.: x x x x x x j p x x x x x x x x x x r 1 x x x x j h.h.h.h.h.h.h.h.h.h.h.h.h.h.",
"h.h.h.h.h.h.h.h.h.h.h.j x x x x x x u e x x x x x x x x x > e x x x c < h.h.h.h.h.h.h.h.h.h.h.h.h.h.",
"h.h.h.h.h.h.h.h.h.h.h.* u x x x x x x l k g x x x x x x u . e x x x w h.h.h.h.h.h.h.h.h.h.h.h.h.h.h.",
"h.h.h.h.h.h.h.h.h.h.h.h.* u x x x x c m 4.) B u x x x x ; h.= j u > h.h.h.h.h.h.h.h.h.h.h.h.h.h.h.h.",
"h.h.h.h.h.h.h.h.h.h.h.h.h.h.< f x c s O.t.2.~ h x x x y h.h.h.h.h.h.h.h.h.h.h.h.h.h.h.h.h.h.h.h.h.h.",
"h.h.h.h.h.h.h.h.h.h.h.h.h.h.g f e K _ t.r.:.o.j x x u @ h.h.h.h.h.h.h.h.h.h.h.h.h.h.h.h.h.h.h.h.h.h.",
"h.h.h.h.h.h.h.h.h.h.h.h.h.- c c x ~ i.q.,.>.2.H x x < O h.h.h.h.h.h.h.h.h.h.h.h.h.h.h.h.h.h.h.h.h.h.",
"h.h.h.h.h.h.h.h.h.h.h.h.h.1 x x x t A q.,.^ Z m c > e g h.h.h.h.h.h.h.h.h.h.h.h.h.h.h.h.h.h.h.h.h.h.",
"h.h.h.h.h.h.h.h.h.h.h.h.h.1 x x x x x T | T j c < y x x < h.h.h.h.h.h.h.h.h.h.h.h.h.h.h.h.h.h.h.h.h.",
"h.h.h.h.h.h.h.h.h.h.h.h.h.& c x x x c j b w g q j c x c j + h.h.h.h.h.h.h.h.h.h.h.h.h.h.h.h.h.h.h.h.",
"h.h.h.h.h.h.h.h.h.h.h.h.h.h.r x x c c x c u 1 j c x x x c w h.h.h.h.h.h.h.h.h.h.h.h.h.h.h.h.h.h.h.h.",
"h.h.h.h.h.h.h.h.h.h.h.h.h.h.- c x x x x x x f r x x x x x j h.h.h.h.h.h.h.h.h.h.h.h.h.h.h.h.h.h.h.h.",
"h.h.h.h.h.h.h.h.h.h.h.h.h.h.h.e x x x x x x c q x x x x x j h.h.h.h.h.h.h.h.h.h.h.h.h.h.h.h.h.h.h.h.",
"h.h.h.h.h.h.h.h.h.h.h.h.h.h.h.< c x x x x x x > x x x x x e h.h.h.h.h.h.h.h.h.h.h.h.h.h.h.h.h.h.h.h.",
"h.h.h.h.h.h.h.h.h.h.h.h.h.h.h.o c x x x x x t q x x x x c 1 h.h.h.h.h.h.h.h.h.h.h.h.h.h.h.h.h.h.h.h.",
"h.h.h.h.h.h.h.h.h.h.h.h.h.h.h.# c x x x c c b n x x c c p h.h.h.h.h.h.h.h.h.h.h.h.h.h.h.h.h.h.h.h.h.",
"h.h.h.h.h.h.h.h.h.h.h.h.h.h.h.1 c x x x c h *.8 8 B _ 2.r.i.4.+...^ h.h.h.h.h.h.h.h.h.h.h.h.h.h.h.h.",
"h.h.h.h.h.h.h.h.h.h.h.h.h.h.1 c c x x x g M ! 4.i.r.1.2.3.9.3.,.X.^ h.h.h.h.h.h.h.h.h.h.h.h.h.h.h.h.",
"h.h.h.h.h.h.h.h.h.h.h.h.h.h.5 g y e u l } ,.( ` / F ` { 7 h.h.h.h.h.h.h.h.h.h.h.h.h.h.h.h.h.h.h.h.h.",
"h.h.h.h.h.h.h.h.h.h.h.h.h.0  .' N S ' q.9.>.>.3.` W h.h.h.h.h.h.h.h.h.h.h.h.h.h.h.h.h.h.h.h.h.h.h.h.",
"h.h.h.h.h.h.h.h.h.h.h.h.h.h.h.h.F ~ ' X.#.X.{ C I h.h.h.h.h.h.h.h.h.h.h.h.h.h.h.h.h.h.h.h.h.h.h.h.h."
};
